<svg xmlns:mydata="http://www.w3.org/2000/svg" mydata:contrastcolor="11111f" mydata:template="Contrast" mydata:presentation="2.5" mydata:layouttype="undefined" mydata:specialfontid="undefined" mydata:id1="715" mydata:id2="558" mydata:companyname="Volun Tech" mydata:companytagline="Conectando Corações, Transformando Vidas" version="1.1" xmlns="http://www.w3.org/2000/svg" xmlns:xlink="http://www.w3.org/1999/xlink" viewBox="0 45 550 380"><g fill="#2cd5c4" fill-rule="none" stroke="none" stroke-width="1" stroke-linecap="butt" stroke-linejoin="miter" stroke-miterlimit="10" stroke-dasharray="" stroke-dashoffset="0" font-family="none" font-weight="none" font-size="none" text-anchor="none" style="mix-blend-mode: normal"><g data-paper-data="{&quot;isGlobalGroup&quot;:true,&quot;bounds&quot;:{&quot;x&quot;:80.786896563838,&quot;y&quot;:114.99999999999999,&quot;width&quot;:388.426206872324,&quot;height&quot;:240}}"><g data-paper-data="{&quot;isSecondaryText&quot;:true}" fill-rule="nonzero"><path d="M98.94222,349.80482c-0.47135,0.28924 -0.82219,0.38297 -1.05251,0.2812c-0.21961,-0.09641 -0.39636,-0.40708 -0.53027,-0.93199c-0.0857,-0.33209 -0.13926,-0.71506 -0.16069,-1.14892c-0.01071,-0.27317 -0.01071,-0.6615 0,-1.16499c0.02143,-0.92128 0.17676,-1.90951 0.466,-2.9647l0.06428,-0.24907l0.07231,-0.24103c0.05356,-0.18747 0.11516,-0.34816 0.18479,-0.48207c0.06963,-0.14998 0.14998,-0.27853 0.24103,-0.38565c0.12319,-0.15533 0.25442,-0.26246 0.39369,-0.32138c0.02678,0.15533 0.05088,0.3803 0.07231,0.67489l0.0241,0.33745c0.01071,0.12855 0.02143,0.23568 0.03214,0.32138c0.03749,0.23568 0.14194,0.39904 0.31334,0.4901c0.16069,0.0857 0.34012,0.09909 0.53831,0.04017c0.20354,-0.05356 0.36691,-0.16069 0.4901,-0.32138c0.13391,-0.18211 0.18479,-0.38833 0.15265,-0.61865l-0.04017,-0.2812l-0.04017,-0.2812c-0.03214,-0.22496 -0.06428,-0.41779 -0.09641,-0.57848c-0.0857,-0.4285 -0.1955,-0.76327 -0.32941,-1.0043c-0.35351,-0.63204 -0.96145,-0.74452 -1.82381,-0.33745c-0.76059,0.35887 -1.32836,1.17303 -1.7033,2.44246c-0.13926,0.466 -0.25442,1.00698 -0.34548,1.62295c-0.03749,0.23032 -0.07231,0.48207 -0.10445,0.75524c-0.01071,0.10713 -0.0241,0.22496 -0.04017,0.35351l-0.01607,0.16069l-0.01607,0.16069c-0.06963,0.71239 -0.0616,1.43816 0.0241,2.17733c0.09641,0.84094 0.28388,1.54261 0.56241,2.10502c0.32673,0.65882 0.75256,1.0659 1.27747,1.22123c0.61062,0.18211 1.33371,0.01607 2.16929,-0.49813c0.19818,-0.12319 0.31602,-0.28924 0.35351,-0.49813c0.03214,-0.19283 -0.00268,-0.3803 -0.10445,-0.56241c-0.10713,-0.17676 -0.25175,-0.29727 -0.43386,-0.36155c-0.19818,-0.06428 -0.39636,-0.03482 -0.59455,0.08838z" data-paper-data="{&quot;glyphName&quot;:&quot;C&quot;,&quot;glyphIndex&quot;:0,&quot;firstGlyphOfWord&quot;:true,&quot;word&quot;:1}"></path><path d="M107.7774,346.81602c-0.00536,0.04821 -0.01607,0.13391 -0.03214,0.2571c-0.02143,0.14998 -0.04821,0.31066 -0.08034,0.48207c-0.0857,0.47135 -0.18479,0.89182 -0.29727,1.2614c-0.33209,1.12482 -0.69096,1.53993 -1.07661,1.24534c-0.38565,-0.2946 -0.6374,-0.8329 -0.75524,-1.61492c-0.04285,-0.28388 -0.06963,-0.60794 -0.08034,-0.97216c0,-0.13926 0,-0.29192 0,-0.45796v-0.20086v-0.19283c0,-0.04285 0.01071,-0.12855 0.03214,-0.2571c0.02143,-0.14462 0.04821,-0.30531 0.08034,-0.48207c0.0857,-0.466 0.18479,-0.88646 0.29727,-1.2614c0.33745,-1.11946 0.69632,-1.5319 1.07661,-1.2373c0.38565,0.28924 0.6374,0.82487 0.75524,1.60688c0.04285,0.28388 0.06963,0.61062 0.08034,0.9802c0.00536,0.13391 0.00536,0.28388 0,0.44993v0.20889zM106.78114,341.73826c-0.99091,0.09106 -1.73543,0.70971 -2.23357,1.85595c-0.18747,0.44457 -0.33745,0.96413 -0.44993,1.55868c-0.0857,0.45528 -0.1473,0.95342 -0.18479,1.4944c-0.03214,0.40708 -0.01607,0.87575 0.04821,1.40602c0.06963,0.6374 0.19015,1.21052 0.36155,1.71937c0.46064,1.37121 1.17035,2.01396 2.12912,1.92826c0.99091,-0.09106 1.73543,-0.70971 2.23357,-1.85595c0.18747,-0.44457 0.33745,-0.96145 0.44993,-1.55064c0.0857,-0.45528 0.1473,-0.9561 0.18479,-1.50244c0.00536,-0.44457 -0.01875,-0.91325 -0.07231,-1.40602c-0.06963,-0.64811 -0.18479,-1.22123 -0.34548,-1.71937c-0.43921,-1.37121 -1.14624,-2.01396 -2.12109,-1.92826z" data-paper-data="{&quot;glyphName&quot;:&quot;O&quot;,&quot;glyphIndex&quot;:1,&quot;word&quot;:1}"></path><path d="M120.75835,349.82892c-0.28924,-1.14089 -0.65882,-2.52013 -1.10875,-4.13773l-0.57044,-2.06485l-0.57848,-2.05681c-0.06428,-0.23032 -0.19283,-0.39101 -0.38565,-0.48207c-0.1714,-0.08034 -0.35887,-0.09373 -0.56241,-0.04017c-0.20354,0.05892 -0.35619,0.16604 -0.45796,0.32138c-0.12319,0.17676 -0.15265,0.3803 -0.08838,0.61062l0.466,1.66312l0.466,1.67116c0.36958,1.32836 0.67489,2.44246 0.91592,3.34232l-0.01607,-0.0241c-0.20889,-0.3428 -0.44189,-0.76059 -0.69899,-1.25337l-0.32941,-0.63472l-0.32941,-0.63472l-0.11248,-0.21693l-0.11248,-0.233c-0.10713,-0.20354 -0.19015,-0.36155 -0.24907,-0.47403c-0.20354,-0.38565 -0.39369,-0.71239 -0.57044,-0.9802c-0.48742,-0.73917 -1.00966,-1.2132 -1.56671,-1.42209c-0.64275,-0.25175 -1.05251,-0.04017 -1.22927,0.63472c-0.05892,0.24103 -0.08838,0.54098 -0.08838,0.89985c0,0.13391 0.00536,0.27853 0.01607,0.43386l0.00803,0.19283c0.00536,0.04821 0.01071,0.10445 0.01607,0.16872c0.05892,0.65347 0.06963,1.62831 0.03214,2.92453l-0.01607,0.73113v0.73113c0,0.54634 0.01875,1.03644 0.05624,1.4703c0.01607,0.23032 0.11248,0.41511 0.28924,0.55437c0.15533,0.12319 0.33745,0.18479 0.54634,0.18479c0.20889,0 0.3803,-0.0616 0.5142,-0.18479c0.14998,-0.13926 0.21425,-0.32405 0.19283,-0.55437c-0.05892,-0.6856 -0.08302,-1.52118 -0.07231,-2.50674l0.0241,-1.25337l0.0241,-1.2614c0,-0.20889 -0.01339,-0.48474 -0.04017,-0.82755l0.16872,0.27317l0.16872,0.2812c0.1714,0.28924 0.35887,0.62133 0.56241,0.99627l0.26514,0.50617l0.26514,0.50617c0.46064,0.8945 0.82755,1.56403 1.10072,2.0086c0.16069,0.2571 0.29727,0.46867 0.40976,0.63472c0.1714,0.24639 0.34012,0.45528 0.50617,0.62668c0.42315,0.44457 0.85968,0.68025 1.30961,0.70703c0.26781,0.02143 0.4901,-0.10445 0.66686,-0.37762c0.16604,-0.26246 0.23835,-0.64543 0.21693,-1.14892c0.01071,-0.09641 0.00268,-0.19818 -0.0241,-0.30531z" data-paper-data="{&quot;glyphName&quot;:&quot;N&quot;,&quot;glyphIndex&quot;:2,&quot;word&quot;:1}"></path><path d="M129.79439,349.36293c-0.5517,0.40708 -1.07929,0.6615 -1.58278,0.76327c-0.67489,0.13926 -1.18106,-0.04553 -1.51851,-0.55437c-0.19818,-0.29995 -0.26514,-0.72845 -0.20086,-1.28551c0.96413,-0.19818 1.8988,-0.58383 2.80401,-1.15696c0.20354,-0.12855 0.32138,-0.29727 0.35351,-0.50617c0.03214,-0.19283 -0.00268,-0.3803 -0.10445,-0.56241c-0.10713,-0.18211 -0.24907,-0.30263 -0.42582,-0.36155c-0.19818,-0.06428 -0.39904,-0.03214 -0.60258,0.09641c-0.5142,0.32138 -1.05519,0.57848 -1.62295,0.7713c0.31066,-1.11411 0.65882,-1.95236 1.04447,-2.51477c0.56241,-0.81951 1.29086,-1.25337 2.18536,-1.30158c0.23568,-0.01071 0.42315,-0.10177 0.56241,-0.27317c0.12319,-0.14998 0.18479,-0.32941 0.18479,-0.53831c0,-0.20889 -0.0616,-0.38297 -0.18479,-0.52224c-0.13926,-0.15533 -0.32673,-0.22496 -0.56241,-0.20889c-1.48905,0.07499 -2.67546,0.79273 -3.55925,2.15322c-0.65347,1.00162 -1.14892,2.38622 -1.48637,4.15379c-0.31602,1.62295 -0.00803,2.81472 0.92396,3.57532c0.6374,0.51956 1.41138,0.71239 2.32195,0.57848c0.78202,-0.11784 1.5319,-0.44189 2.24964,-0.97216c0.18747,-0.13391 0.29727,-0.31334 0.32941,-0.53831c0.02678,-0.19818 -0.01339,-0.38833 -0.12052,-0.57044c-0.10177,-0.17676 -0.24103,-0.29192 -0.41779,-0.34548c-0.19283,-0.05892 -0.38297,-0.01875 -0.57044,0.12052z" data-paper-data="{&quot;glyphName&quot;:&quot;E&quot;,&quot;glyphIndex&quot;:3,&quot;word&quot;:1}"></path><path d="M138.44478,349.80482c-0.47135,0.28924 -0.82219,0.38297 -1.05251,0.2812c-0.21961,-0.09641 -0.39636,-0.40708 -0.53027,-0.93199c-0.0857,-0.33209 -0.13926,-0.71506 -0.16069,-1.14892c-0.01071,-0.27317 -0.01071,-0.6615 0,-1.16499c0.02143,-0.92128 0.17676,-1.90951 0.466,-2.9647l0.06428,-0.24907l0.07231,-0.24103c0.05356,-0.18747 0.11516,-0.34816 0.18479,-0.48207c0.06963,-0.14998 0.14998,-0.27853 0.24103,-0.38565c0.12319,-0.15533 0.25442,-0.26246 0.39369,-0.32138c0.02678,0.15533 0.05088,0.3803 0.07231,0.67489l0.0241,0.33745c0.01071,0.12855 0.02143,0.23568 0.03214,0.32138c0.03749,0.23568 0.14194,0.39904 0.31334,0.4901c0.16069,0.0857 0.34012,0.09909 0.53831,0.04017c0.20354,-0.05356 0.36691,-0.16069 0.4901,-0.32138c0.13391,-0.18211 0.18479,-0.38833 0.15265,-0.61865l-0.04017,-0.2812l-0.04017,-0.2812c-0.03214,-0.22496 -0.06428,-0.41779 -0.09641,-0.57848c-0.0857,-0.4285 -0.1955,-0.76327 -0.32941,-1.0043c-0.35351,-0.63204 -0.96145,-0.74452 -1.82381,-0.33745c-0.76059,0.35887 -1.32836,1.17303 -1.7033,2.44246c-0.13926,0.466 -0.25442,1.00698 -0.34548,1.62295c-0.03749,0.23032 -0.07231,0.48207 -0.10445,0.75524c-0.01071,0.10713 -0.0241,0.22496 -0.04017,0.35351l-0.01607,0.16069l-0.01607,0.16069c-0.06963,0.71239 -0.0616,1.43816 0.0241,2.17733c0.09641,0.84094 0.28388,1.54261 0.56241,2.10502c0.32673,0.65882 0.75256,1.0659 1.27747,1.22123c0.61062,0.18211 1.33371,0.01607 2.16929,-0.49813c0.19818,-0.12319 0.31602,-0.28924 0.35351,-0.49813c0.03214,-0.19283 -0.00268,-0.3803 -0.10445,-0.56241c-0.10713,-0.17676 -0.25175,-0.29727 -0.43386,-0.36155c-0.19818,-0.06428 -0.39636,-0.03482 -0.59455,0.08838z" data-paper-data="{&quot;glyphName&quot;:&quot;C&quot;,&quot;glyphIndex&quot;:4,&quot;word&quot;:1}"></path><path d="M148.23606,342.79881c0.5999,-0.17676 1.14089,-0.28924 1.62295,-0.33745c0.23568,-0.02143 0.42047,-0.12052 0.55437,-0.29727c0.12319,-0.15533 0.18747,-0.33745 0.19283,-0.54634c0,-0.20889 -0.0616,-0.3803 -0.18479,-0.5142c-0.13926,-0.14998 -0.32673,-0.21425 -0.56241,-0.19283c-0.75524,0.07499 -1.65241,0.28388 -2.69153,0.62668l-0.65079,0.22496l-0.65079,0.233c-0.53027,0.18211 -0.97216,0.32405 -1.32568,0.42582c-0.22496,0.06963 -0.38297,0.20086 -0.47403,0.39369c-0.08034,0.17676 -0.09373,0.36423 -0.04017,0.56241c0.05892,0.20354 0.16604,0.35887 0.32138,0.466c0.17676,0.11248 0.37762,0.13659 0.60258,0.07231c0.26246,-0.07499 0.55705,-0.1714 0.88379,-0.28924l0.87575,-0.31334c0.02678,0.55705 0.04285,1.19445 0.04821,1.91219v1.91219c0,1.65509 0.0241,2.92988 0.07231,3.82438c0.01071,0.23568 0.09909,0.42315 0.26514,0.56241c0.15533,0.12319 0.33745,0.18479 0.54634,0.18479c0.20889,0 0.38297,-0.0616 0.52224,-0.18479c0.15533,-0.13926 0.22496,-0.32673 0.20889,-0.56241c-0.03214,-0.60526 -0.05088,-1.28551 -0.05624,-2.04074l-0.00803,-1.02037v-1.02037c0,-1.81042 -0.0241,-3.17092 -0.07231,-4.08149z" data-paper-data="{&quot;glyphName&quot;:&quot;T&quot;,&quot;glyphIndex&quot;:5,&quot;word&quot;:1}"></path><path d="M156.50884,345.25734c-0.33209,0.10177 -0.65079,0.22764 -0.9561,0.37762c0.28924,-0.90521 0.62936,-1.70598 1.02037,-2.40229c0,0.2571 -0.00803,0.59455 -0.0241,1.01234l-0.0241,0.50617zM158.25231,350.72878c-0.20354,-2.32463 -0.26781,-4.60908 -0.19283,-6.85336c0.02678,-0.84094 0.02143,-1.48101 -0.01607,-1.92023l-0.01607,-0.17676l-0.01607,-0.18479c-0.02143,-0.14998 -0.04553,-0.2812 -0.07231,-0.39369c-0.07499,-0.30531 -0.19283,-0.52492 -0.35351,-0.65882c-0.11784,-0.09641 -0.28924,-0.13659 -0.5142,-0.12052c-0.23032,0.01071 -0.39636,0.07499 -0.49813,0.19283l-0.08838,0.09641l-0.03214,0.03214l-0.03214,0.03214c-1.01769,1.18909 -1.82114,2.76652 -2.41033,4.73227c-0.20889,0.70703 -0.42582,1.5801 -0.65079,2.61922l-0.27317,1.31764c-0.11248,0.54634 -0.20354,0.97752 -0.27317,1.29354c-0.05356,0.23032 -0.01607,0.43386 0.11248,0.61062c0.11248,0.16069 0.26781,0.27049 0.466,0.32941c0.20354,0.05356 0.38833,0.04017 0.55437,-0.04017c0.18747,-0.09106 0.30531,-0.25175 0.35351,-0.48207c0.08034,-0.35887 0.19015,-0.88111 0.32941,-1.56671l0.16069,-0.80344l0.16872,-0.81148c0.4285,-0.46064 0.94538,-0.81683 1.55064,-1.06858c0.02678,1.35514 0.09106,2.62993 0.19283,3.82438c0.02143,0.23032 0.11784,0.41511 0.28924,0.55437c0.15533,0.12319 0.33745,0.18479 0.54634,0.18479c0.20889,0 0.3803,-0.0616 0.5142,-0.18479c0.14998,-0.13926 0.21693,-0.32405 0.20086,-0.55437z" data-paper-data="{&quot;glyphName&quot;:&quot;A&quot;,&quot;glyphIndex&quot;:6,&quot;word&quot;:1}"></path><path d="M169.61833,349.82892c-0.28924,-1.14089 -0.65882,-2.52013 -1.10875,-4.13773l-0.57044,-2.06485l-0.57848,-2.05681c-0.06428,-0.23032 -0.19283,-0.39101 -0.38565,-0.48207c-0.1714,-0.08034 -0.35887,-0.09373 -0.56241,-0.04017c-0.20354,0.05892 -0.35619,0.16604 -0.45796,0.32138c-0.12319,0.17676 -0.15265,0.3803 -0.08838,0.61062l0.466,1.66312l0.466,1.67116c0.36958,1.32836 0.67489,2.44246 0.91592,3.34232l-0.01607,-0.0241c-0.20889,-0.3428 -0.44189,-0.76059 -0.69899,-1.25337l-0.32941,-0.63472l-0.32941,-0.63472l-0.11248,-0.21693l-0.11248,-0.233c-0.10713,-0.20354 -0.19015,-0.36155 -0.24907,-0.47403c-0.20354,-0.38565 -0.39369,-0.71239 -0.57044,-0.9802c-0.48742,-0.73917 -1.00966,-1.2132 -1.56671,-1.42209c-0.64275,-0.25175 -1.05251,-0.04017 -1.22927,0.63472c-0.05892,0.24103 -0.08838,0.54098 -0.08838,0.89985c0,0.13391 0.00536,0.27853 0.01607,0.43386l0.00803,0.19283c0.00536,0.04821 0.01071,0.10445 0.01607,0.16872c0.05892,0.65347 0.06963,1.62831 0.03214,2.92453l-0.01607,0.73113v0.73113c0,0.54634 0.01875,1.03644 0.05624,1.4703c0.01607,0.23032 0.11248,0.41511 0.28924,0.55437c0.15533,0.12319 0.33745,0.18479 0.54634,0.18479c0.20889,0 0.3803,-0.0616 0.5142,-0.18479c0.14998,-0.13926 0.21425,-0.32405 0.19283,-0.55437c-0.05892,-0.6856 -0.08302,-1.52118 -0.07231,-2.50674l0.0241,-1.25337l0.0241,-1.2614c0,-0.20889 -0.01339,-0.48474 -0.04017,-0.82755l0.16872,0.27317l0.16872,0.2812c0.1714,0.28924 0.35887,0.62133 0.56241,0.99627l0.26514,0.50617l0.26514,0.50617c0.46064,0.8945 0.82755,1.56403 1.10072,2.0086c0.16069,0.2571 0.29727,0.46867 0.40976,0.63472c0.1714,0.24639 0.34012,0.45528 0.50617,0.62668c0.42315,0.44457 0.85968,0.68025 1.30961,0.70703c0.26781,0.02143 0.4901,-0.10445 0.66686,-0.37762c0.16604,-0.26246 0.23835,-0.64543 0.21693,-1.14892c0.01071,-0.09641 0.00268,-0.19818 -0.0241,-0.30531z" data-paper-data="{&quot;glyphName&quot;:&quot;N&quot;,&quot;glyphIndex&quot;:7,&quot;word&quot;:1}"></path><path d="M175.54505,350.07799c-0.03214,0.02678 -0.05624,0.04821 -0.07231,0.06428c-0.01607,0.01071 -0.02143,0.01339 -0.01607,0.00803c0.00536,-0.01071 0.01607,-0.02143 0.03214,-0.03214c0.02143,-0.01607 0.04017,-0.02946 0.05624,-0.04017zM179.08823,346.38216c-0.11784,-0.93199 -0.5142,-1.92023 -1.18909,-2.9647c-0.24103,-0.36958 -0.55973,-0.8088 -0.9561,-1.31764l-0.4901,-0.63472c-0.20889,-0.26246 -0.37226,-0.47135 -0.4901,-0.62668c-0.13926,-0.18747 -0.32138,-0.2946 -0.54634,-0.32138c-0.19818,-0.02678 -0.38833,0.01339 -0.57044,0.12052c-0.18211,0.10177 -0.29727,0.23835 -0.34548,0.40976c-0.05892,0.19283 -0.01607,0.38297 0.12855,0.57044c0.12319,0.16069 0.3187,0.40976 0.58651,0.7472l0.31334,0.39369l0.31334,0.40172c0.49813,0.65347 0.87307,1.22391 1.12482,1.71133c0.71774,1.37656 0.72042,2.59244 0.00803,3.64763c-0.27853,0.41243 -0.66686,0.85165 -1.16499,1.31764c-0.04285,0.04285 -0.08034,0.07767 -0.11248,0.10445l-0.04017,-0.48207l-0.03214,-0.48207c-0.06428,-0.82487 -0.12052,-1.75686 -0.16872,-2.79598c-0.02678,-0.62668 -0.05624,-1.56136 -0.08838,-2.80401c-0.01071,-0.23568 -0.09909,-0.42315 -0.26514,-0.56241c-0.14462,-0.12319 -0.32138,-0.18479 -0.53027,-0.18479c-0.21425,0 -0.39101,0.0616 -0.53027,0.18479c-0.15533,0.13926 -0.23032,0.32673 -0.22496,0.56241l0.0241,0.93199l0.01607,0.94003c0.01607,0.79273 0.03214,1.42477 0.04821,1.89612c0.05892,1.46226 0.17944,2.71028 0.36155,3.74404c0.12855,0.71239 0.56509,0.96145 1.30961,0.7472c0.27317,-0.08034 0.56777,-0.21961 0.88379,-0.41779c0.26246,-0.16604 0.48474,-0.33209 0.66686,-0.49813c1.49976,-1.39263 2.15322,-2.83883 1.9604,-4.33859z" data-paper-data="{&quot;glyphName&quot;:&quot;D&quot;,&quot;glyphIndex&quot;:8,&quot;word&quot;:1}"></path><path d="M187.20032,346.81602c-0.00536,0.04821 -0.01607,0.13391 -0.03214,0.2571c-0.02143,0.14998 -0.04821,0.31066 -0.08034,0.48207c-0.0857,0.47135 -0.18479,0.89182 -0.29727,1.2614c-0.33209,1.12482 -0.69096,1.53993 -1.07661,1.24534c-0.38565,-0.2946 -0.6374,-0.8329 -0.75524,-1.61492c-0.04285,-0.28388 -0.06963,-0.60794 -0.08034,-0.97216c0,-0.13926 0,-0.29192 0,-0.45796v-0.20086v-0.19283c0,-0.04285 0.01071,-0.12855 0.03214,-0.2571c0.02143,-0.14462 0.04821,-0.30531 0.08034,-0.48207c0.0857,-0.466 0.18479,-0.88646 0.29727,-1.2614c0.33745,-1.11946 0.69632,-1.5319 1.07661,-1.2373c0.38565,0.28924 0.6374,0.82487 0.75524,1.60688c0.04285,0.28388 0.06963,0.61062 0.08034,0.9802c0.00536,0.13391 0.00536,0.28388 0,0.44993v0.20889zM186.20405,341.73826c-0.99091,0.09106 -1.73543,0.70971 -2.23357,1.85595c-0.18747,0.44457 -0.33745,0.96413 -0.44993,1.55868c-0.0857,0.45528 -0.1473,0.95342 -0.18479,1.4944c-0.03214,0.40708 -0.01607,0.87575 0.04821,1.40602c0.06963,0.6374 0.19015,1.21052 0.36155,1.71937c0.46064,1.37121 1.17035,2.01396 2.12912,1.92826c0.99091,-0.09106 1.73543,-0.70971 2.23357,-1.85595c0.18747,-0.44457 0.33745,-0.96145 0.44993,-1.55064c0.0857,-0.45528 0.1473,-0.9561 0.18479,-1.50244c0.00536,-0.44457 -0.01875,-0.91325 -0.07231,-1.40602c-0.06963,-0.64811 -0.18479,-1.22123 -0.34548,-1.71937c-0.43921,-1.37121 -1.14624,-2.01396 -2.12109,-1.92826z" data-paper-data="{&quot;glyphName&quot;:&quot;O&quot;,&quot;glyphIndex&quot;:9,&quot;lastGlyphOfWord&quot;:true,&quot;word&quot;:1}"></path><path d="M202.5166,349.80482c-0.47135,0.28924 -0.82219,0.38297 -1.05251,0.2812c-0.21961,-0.09641 -0.39636,-0.40708 -0.53027,-0.93199c-0.0857,-0.33209 -0.13926,-0.71506 -0.16069,-1.14892c-0.01071,-0.27317 -0.01071,-0.6615 0,-1.16499c0.02143,-0.92128 0.17676,-1.90951 0.466,-2.9647l0.06428,-0.24907l0.07231,-0.24103c0.05356,-0.18747 0.11516,-0.34816 0.18479,-0.48207c0.06963,-0.14998 0.14998,-0.27853 0.24103,-0.38565c0.12319,-0.15533 0.25442,-0.26246 0.39369,-0.32138c0.02678,0.15533 0.05088,0.3803 0.07231,0.67489l0.0241,0.33745c0.01071,0.12855 0.02143,0.23568 0.03214,0.32138c0.03749,0.23568 0.14194,0.39904 0.31334,0.4901c0.16069,0.0857 0.34012,0.09909 0.53831,0.04017c0.20354,-0.05356 0.36691,-0.16069 0.4901,-0.32138c0.13391,-0.18211 0.18479,-0.38833 0.15265,-0.61865l-0.04017,-0.2812l-0.04017,-0.2812c-0.03214,-0.22496 -0.06428,-0.41779 -0.09641,-0.57848c-0.0857,-0.4285 -0.1955,-0.76327 -0.32941,-1.0043c-0.35351,-0.63204 -0.96145,-0.74452 -1.82381,-0.33745c-0.76059,0.35887 -1.32836,1.17303 -1.7033,2.44246c-0.13926,0.466 -0.25442,1.00698 -0.34548,1.62295c-0.03749,0.23032 -0.07231,0.48207 -0.10445,0.75524c-0.01071,0.10713 -0.0241,0.22496 -0.04017,0.35351l-0.01607,0.16069l-0.01607,0.16069c-0.06963,0.71239 -0.0616,1.43816 0.0241,2.17733c0.09641,0.84094 0.28388,1.54261 0.56241,2.10502c0.32673,0.65882 0.75256,1.0659 1.27747,1.22123c0.61062,0.18211 1.33371,0.01607 2.16929,-0.49813c0.19818,-0.12319 0.31602,-0.28924 0.35351,-0.49813c0.03214,-0.19283 -0.00268,-0.3803 -0.10445,-0.56241c-0.10713,-0.17676 -0.25175,-0.29727 -0.43386,-0.36155c-0.19818,-0.06428 -0.39636,-0.03482 -0.59455,0.08838z" data-paper-data="{&quot;glyphName&quot;:&quot;C&quot;,&quot;glyphIndex&quot;:10,&quot;firstGlyphOfWord&quot;:true,&quot;word&quot;:2}"></path><path d="M211.35178,346.81602c-0.00536,0.04821 -0.01607,0.13391 -0.03214,0.2571c-0.02143,0.14998 -0.04821,0.31066 -0.08034,0.48207c-0.0857,0.47135 -0.18479,0.89182 -0.29727,1.2614c-0.33209,1.12482 -0.69096,1.53993 -1.07661,1.24534c-0.38565,-0.2946 -0.6374,-0.8329 -0.75524,-1.61492c-0.04285,-0.28388 -0.06963,-0.60794 -0.08034,-0.97216c0,-0.13926 0,-0.29192 0,-0.45796v-0.20086v-0.19283c0,-0.04285 0.01071,-0.12855 0.03214,-0.2571c0.02143,-0.14462 0.04821,-0.30531 0.08034,-0.48207c0.0857,-0.466 0.18479,-0.88646 0.29727,-1.2614c0.33745,-1.11946 0.69632,-1.5319 1.07661,-1.2373c0.38565,0.28924 0.6374,0.82487 0.75524,1.60688c0.04285,0.28388 0.06963,0.61062 0.08034,0.9802c0.00536,0.13391 0.00536,0.28388 0,0.44993v0.20889zM210.35551,341.73826c-0.99091,0.09106 -1.73543,0.70971 -2.23357,1.85595c-0.18747,0.44457 -0.33745,0.96413 -0.44993,1.55868c-0.0857,0.45528 -0.1473,0.95342 -0.18479,1.4944c-0.03214,0.40708 -0.01607,0.87575 0.04821,1.40602c0.06963,0.6374 0.19015,1.21052 0.36155,1.71937c0.46064,1.37121 1.17035,2.01396 2.12912,1.92826c0.99091,-0.09106 1.73543,-0.70971 2.23357,-1.85595c0.18747,-0.44457 0.33745,-0.96145 0.44993,-1.55064c0.0857,-0.45528 0.1473,-0.9561 0.18479,-1.50244c0.00536,-0.44457 -0.01875,-0.91325 -0.07231,-1.40602c-0.06963,-0.64811 -0.18479,-1.22123 -0.34548,-1.71937c-0.43921,-1.37121 -1.14624,-2.01396 -2.12109,-1.92826z" data-paper-data="{&quot;glyphName&quot;:&quot;O&quot;,&quot;glyphIndex&quot;:11,&quot;word&quot;:2}"></path><path d="M218.75684,345.28144c0,-0.05356 -0.00268,-0.15265 -0.00803,-0.29727l-0.00803,-0.09641v-0.10445c-0.00536,-0.0857 -0.01071,-0.16337 -0.01607,-0.233c-0.01607,-0.41779 -0.02143,-0.77398 -0.01607,-1.06858c0.01071,-0.93735 0.12319,-1.44887 0.33745,-1.53457c0.18211,-0.06428 0.43118,-0.0857 0.7472,-0.06428c0.3428,0.02678 0.63472,0.10177 0.87575,0.22496c0.66953,0.33745 0.70703,0.87843 0.11248,1.62295c-0.11248,0.13926 -0.26514,0.2812 -0.45796,0.42582l-0.26514,0.18479l-0.26514,0.17676l-0.12052,0.08034l-0.12855,0.08838l-0.26514,0.18479c-0.21425,0.14998 -0.38833,0.28656 -0.52224,0.40976zM220.31552,346.98474c-0.15533,-0.16604 -0.29995,-0.35887 -0.43386,-0.57848c0.02678,-0.03214 0.05624,-0.06695 0.08838,-0.10445c0.15533,-0.13926 0.36423,-0.29995 0.62668,-0.48207l0.33745,-0.21693l0.32138,-0.22496c0.95342,-0.6856 1.46762,-1.58814 1.54261,-2.7076c0.03214,-0.50885 -0.13659,-0.95877 -0.50617,-1.34978c-0.33209,-0.35351 -0.78202,-0.62133 -1.34978,-0.80344c-0.54634,-0.1714 -1.09268,-0.233 -1.63902,-0.18479c-0.56777,0.04285 -1.02037,0.1955 -1.35782,0.45796c-0.33745,0.26246 -0.5517,0.66686 -0.64275,1.2132c-0.02678,0.19283 -0.04553,0.43118 -0.05624,0.71506l-0.00803,0.35351c0,0.14998 -0.00268,0.26514 -0.00803,0.34548l-0.04017,0.9561l-0.04017,0.94806c-0.02678,0.73381 -0.03214,1.37121 -0.01607,1.91219l0.03214,1.10072l0.04821,1.09268c0.01071,0.23568 0.09909,0.42315 0.26514,0.56241c0.14998,0.12319 0.32941,0.18479 0.53831,0.18479c0.20889,0 0.38297,-0.0616 0.52224,-0.18479c0.15533,-0.13926 0.23032,-0.32673 0.22496,-0.56241c-0.02143,-0.48207 -0.03214,-1.0659 -0.03214,-1.7515c0.28924,0.38565 0.71506,0.8088 1.27747,1.26944c0.36958,0.30531 0.89985,0.70435 1.59082,1.19713c1.39799,1.00162 2.20411,1.67116 2.41836,2.0086c0.12319,0.19818 0.29192,0.31602 0.50617,0.35351c0.19283,0.03214 0.37762,-0.00536 0.55437,-0.11248c0.18211,-0.10713 0.30263,-0.24907 0.36155,-0.42582c0.06428,-0.19818 0.03482,-0.39636 -0.08838,-0.59455c-0.45528,-0.7231 -1.25337,-1.4944 -2.39426,-2.31391l-0.69096,-0.4901c-0.27853,-0.19818 -0.50617,-0.36423 -0.68293,-0.49813c-0.51956,-0.38565 -0.94271,-0.7472 -1.26944,-1.08465z" data-paper-data="{&quot;glyphName&quot;:&quot;R&quot;,&quot;glyphIndex&quot;:12,&quot;word&quot;:2}"></path><path d="M233.36074,345.25734c-0.33209,0.10177 -0.65079,0.22764 -0.9561,0.37762c0.28924,-0.90521 0.62936,-1.70598 1.02037,-2.40229c0,0.2571 -0.00803,0.59455 -0.0241,1.01234l-0.0241,0.50617zM235.1042,350.72878c-0.20354,-2.32463 -0.26781,-4.60908 -0.19283,-6.85336c0.02678,-0.84094 0.02143,-1.48101 -0.01607,-1.92023l-0.01607,-0.17676l-0.01607,-0.18479c-0.02143,-0.14998 -0.04553,-0.2812 -0.07231,-0.39369c-0.07499,-0.30531 -0.19283,-0.52492 -0.35351,-0.65882c-0.11784,-0.09641 -0.28924,-0.13659 -0.5142,-0.12052c-0.23032,0.01071 -0.39636,0.07499 -0.49813,0.19283l-0.08838,0.09641l-0.03214,0.03214l-0.03214,0.03214c-1.01769,1.18909 -1.82114,2.76652 -2.41033,4.73227c-0.20889,0.70703 -0.42582,1.5801 -0.65079,2.61922l-0.27317,1.31764c-0.11248,0.54634 -0.20354,0.97752 -0.27317,1.29354c-0.05356,0.23032 -0.01607,0.43386 0.11248,0.61062c0.11248,0.16069 0.26781,0.27049 0.466,0.32941c0.20354,0.05356 0.38833,0.04017 0.55437,-0.04017c0.18747,-0.09106 0.30531,-0.25175 0.35351,-0.48207c0.08034,-0.35887 0.19015,-0.88111 0.32941,-1.56671l0.16069,-0.80344l0.16872,-0.81148c0.4285,-0.46064 0.94538,-0.81683 1.55064,-1.06858c0.02678,1.35514 0.09106,2.62993 0.19283,3.82438c0.02143,0.23032 0.11784,0.41511 0.28924,0.55437c0.15533,0.12319 0.33745,0.18479 0.54634,0.18479c0.20889,0 0.3803,-0.0616 0.5142,-0.18479c0.14998,-0.13926 0.21693,-0.32405 0.20086,-0.55437z" data-paper-data="{&quot;glyphName&quot;:&quot;A&quot;,&quot;glyphIndex&quot;:13,&quot;word&quot;:2}"></path><path d="M242.5655,349.82892c-0.47135,0.28924 -0.82219,0.38297 -1.05251,0.2812c-0.21961,-0.09641 -0.39636,-0.40708 -0.53027,-0.93199c-0.0857,-0.33209 -0.13926,-0.71506 -0.16069,-1.14892c-0.01071,-0.27317 -0.01071,-0.65882 0,-1.15696c0.02678,-1.10875 0.25175,-2.33266 0.67489,-3.67173c0.02678,-0.0857 0.06428,-0.18211 0.11248,-0.28924c0.03749,-0.09106 0.08302,-0.18479 0.13659,-0.2812l0.04017,-0.07231l0.04821,-0.07231c0.01607,-0.02678 0.03749,-0.05356 0.06428,-0.08034l0.04821,-0.04821c0.03749,-0.03214 0.07231,-0.05624 0.10445,-0.07231c0.04821,-0.02678 0.10177,-0.04553 0.16069,-0.05624l0.03214,-0.00803c0.02678,0.16069 0.05088,0.38833 0.07231,0.68293l0.0241,0.33745c0.01071,0.12319 0.02143,0.23032 0.03214,0.32138c0.03749,0.23032 0.14194,0.39369 0.31334,0.4901c0.16069,0.08034 0.34012,0.09373 0.53831,0.04017c0.20354,-0.05892 0.36691,-0.16872 0.4901,-0.32941c0.13391,-0.17676 0.18479,-0.3803 0.15265,-0.61062l-0.04017,-0.2812l-0.04017,-0.28924c-0.03214,-0.22496 -0.06428,-0.41511 -0.09641,-0.57044c-0.0857,-0.4285 -0.1955,-0.76327 -0.32941,-1.0043c-0.35351,-0.6374 -0.96145,-0.75256 -1.82381,-0.34548c-0.76059,0.35887 -1.32836,1.1757 -1.7033,2.4505c-0.13926,0.466 -0.25442,1.0043 -0.34548,1.61492c-0.03749,0.23568 -0.07231,0.4901 -0.10445,0.76327c-0.01071,0.10713 -0.02143,0.22496 -0.03214,0.35351l-0.01607,0.16069l-0.01607,0.16069c-0.09106,0.86772 -0.06695,1.73543 0.07231,2.60315c0.16604,1.01234 0.466,1.77561 0.89985,2.28981c-0.27317,0.41243 -0.39636,0.80612 -0.36958,1.18106c0.03749,0.43386 0.28388,0.73917 0.73917,0.91592c0.09106,0.03749 0.20354,0.06428 0.33745,0.08034l0.17676,0.00803l0.18479,0.00803l-0.04821,0.03214l-0.04821,0.03214c-0.14998,0.09641 -0.29192,0.1714 -0.42582,0.22496c-0.3428,0.14462 -0.5999,0.28924 -0.7713,0.43386c-0.13926,0.11784 -0.20622,0.25978 -0.20086,0.42582c0.00536,0.14462 0.06695,0.27585 0.18479,0.39369c0.11784,0.11784 0.2571,0.18479 0.41779,0.20086c0.17676,0.02143 0.33477,-0.02678 0.47403,-0.14462c0.06963,-0.05892 0.17676,-0.11516 0.32138,-0.16872l0.16872,-0.06428c0.06963,-0.02678 0.12587,-0.04821 0.16872,-0.06428c0.27853,-0.12319 0.57312,-0.33745 0.88379,-0.64275c0.20889,-0.19818 0.33745,-0.44189 0.38565,-0.73113c0.05892,-0.32138 -0.01607,-0.57848 -0.22496,-0.7713c-0.24103,-0.22496 -0.65079,-0.36155 -1.22927,-0.40976l-0.2571,-0.01607c0.03214,-0.0857 0.09106,-0.17944 0.17676,-0.2812c0.57848,0.11248 1.24801,-0.06428 2.0086,-0.53027c0.19818,-0.12319 0.31602,-0.29192 0.35351,-0.50617c0.03214,-0.18747 -0.00268,-0.37226 -0.10445,-0.55437c-0.10713,-0.18211 -0.24907,-0.30263 -0.42582,-0.36155c-0.20354,-0.06963 -0.4044,-0.04285 -0.60258,0.08034z" data-paper-data="{&quot;glyphName&quot;:&quot;Ç&quot;,&quot;glyphIndex&quot;:14,&quot;word&quot;:2}"></path><path d="M251.37658,346.81602c-0.00536,0.04821 -0.01607,0.13391 -0.03214,0.2571c-0.02143,0.14998 -0.04821,0.31066 -0.08034,0.48207c-0.0857,0.47135 -0.18479,0.89182 -0.29727,1.2614c-0.33209,1.12482 -0.69096,1.53993 -1.07661,1.24534c-0.38565,-0.2946 -0.6374,-0.8329 -0.75524,-1.61492c-0.04285,-0.28388 -0.06963,-0.60794 -0.08034,-0.97216c0,-0.13926 0,-0.29192 0,-0.45796v-0.20086v-0.19283c0,-0.04285 0.01071,-0.12855 0.03214,-0.2571c0.02143,-0.14462 0.04821,-0.30531 0.08034,-0.48207c0.0857,-0.466 0.18479,-0.88646 0.29727,-1.2614c0.33745,-1.11946 0.69632,-1.5319 1.07661,-1.2373c0.38565,0.28924 0.6374,0.82487 0.75524,1.60688c0.04285,0.28388 0.06963,0.61062 0.08034,0.9802c0.00536,0.13391 0.00536,0.28388 0,0.44993v0.20889zM250.38031,341.73826c-0.99091,0.09106 -1.73543,0.70971 -2.23357,1.85595c-0.18747,0.44457 -0.33745,0.96413 -0.44993,1.55868c-0.0857,0.45528 -0.1473,0.95342 -0.18479,1.4944c-0.03214,0.40708 -0.01607,0.87575 0.04821,1.40602c0.06963,0.6374 0.19015,1.21052 0.36155,1.71937c0.46064,1.37121 1.17035,2.01396 2.12912,1.92826c0.99091,-0.09106 1.73543,-0.70971 2.23357,-1.85595c0.18747,-0.44457 0.33745,-0.96145 0.44993,-1.55064c0.0857,-0.45528 0.1473,-0.9561 0.18479,-1.50244c0.00536,-0.44457 -0.01875,-0.91325 -0.07231,-1.40602c-0.06963,-0.64811 -0.18479,-1.22123 -0.34548,-1.71937c-0.43921,-1.37121 -1.14624,-2.01396 -2.12109,-1.92826zM251.2641,339.11904l-0.04017,0.08838c-0.02678,0.06428 -0.04821,0.10445 -0.06428,0.12052c-0.04821,0.05356 -0.12319,0.02946 -0.22496,-0.07231l-0.17676,-0.17676c-0.06963,-0.06963 -0.13391,-0.12855 -0.19283,-0.17676c-0.14462,-0.11784 -0.28924,-0.19818 -0.43386,-0.24103c-0.40708,-0.12319 -0.77398,-0.06963 -1.10072,0.16069c-0.20354,0.13926 -0.46332,0.42315 -0.77934,0.85165c-0.12319,0.1714 -0.15801,0.34548 -0.10445,0.52224c0.04821,0.15533 0.15265,0.27853 0.31334,0.36958c0.16604,0.09641 0.33745,0.13123 0.5142,0.10445c0.19818,-0.02678 0.35887,-0.12319 0.48207,-0.28924l0.12052,-0.17676l0.12052,-0.17676c0.02143,-0.03214 0.04017,-0.04017 0.05624,-0.0241l0.01607,0.0241l0.01607,0.03214c0.02143,0.02678 0.04553,0.05356 0.07231,0.08034l0.08838,0.08838l0.08838,0.08838c0.06963,0.06963 0.13391,0.12587 0.19283,0.16872c0.14998,0.12319 0.29727,0.20086 0.44189,0.233c0.79809,0.19818 1.41406,-0.13391 1.84792,-0.99627c0.09106,-0.18747 0.10177,-0.37494 0.03214,-0.56241c-0.05892,-0.16604 -0.1714,-0.2946 -0.33745,-0.38565c-0.16069,-0.09641 -0.32405,-0.12855 -0.4901,-0.09641c-0.17676,0.03749 -0.31334,0.15265 -0.40976,0.34548z" data-paper-data="{&quot;glyphName&quot;:&quot;Õ&quot;,&quot;glyphIndex&quot;:15,&quot;word&quot;:2}"></path><path d="M261.98737,349.36293c-0.5517,0.40708 -1.07929,0.6615 -1.58278,0.76327c-0.67489,0.13926 -1.18106,-0.04553 -1.51851,-0.55437c-0.19818,-0.29995 -0.26514,-0.72845 -0.20086,-1.28551c0.96413,-0.19818 1.8988,-0.58383 2.80401,-1.15696c0.20354,-0.12855 0.32138,-0.29727 0.35351,-0.50617c0.03214,-0.19283 -0.00268,-0.3803 -0.10445,-0.56241c-0.10713,-0.18211 -0.24907,-0.30263 -0.42582,-0.36155c-0.19818,-0.06428 -0.39904,-0.03214 -0.60258,0.09641c-0.5142,0.32138 -1.05519,0.57848 -1.62295,0.7713c0.31066,-1.11411 0.65882,-1.95236 1.04447,-2.51477c0.56241,-0.81951 1.29086,-1.25337 2.18536,-1.30158c0.23568,-0.01071 0.42315,-0.10177 0.56241,-0.27317c0.12319,-0.14998 0.18479,-0.32941 0.18479,-0.53831c0,-0.20889 -0.0616,-0.38297 -0.18479,-0.52224c-0.13926,-0.15533 -0.32673,-0.22496 -0.56241,-0.20889c-1.48905,0.07499 -2.67546,0.79273 -3.55925,2.15322c-0.65347,1.00162 -1.14892,2.38622 -1.48637,4.15379c-0.31602,1.62295 -0.00803,2.81472 0.92396,3.57532c0.6374,0.51956 1.41138,0.71239 2.32195,0.57848c0.78202,-0.11784 1.5319,-0.44189 2.24964,-0.97216c0.18747,-0.13391 0.29727,-0.31334 0.32941,-0.53831c0.02678,-0.19818 -0.01339,-0.38833 -0.12052,-0.57044c-0.10177,-0.17676 -0.24103,-0.29192 -0.41779,-0.34548c-0.19283,-0.05892 -0.38297,-0.01875 -0.57044,0.12052z" data-paper-data="{&quot;glyphName&quot;:&quot;E&quot;,&quot;glyphIndex&quot;:16,&quot;word&quot;:2}"></path><path d="M268.83805,345.85992c-0.66953,-0.23568 -0.94538,-0.62668 -0.82755,-1.17303c0.09106,-0.40708 0.3803,-0.85165 0.86772,-1.33371c0.23032,-0.23032 0.40708,-0.35887 0.53027,-0.38565c0.10177,-0.02143 0.14998,0.03482 0.14462,0.16872c-0.00536,0.12319 -0.05624,0.27585 -0.15265,0.45796c-0.11248,0.19283 -0.24639,0.36155 -0.40172,0.50617c-0.1714,0.16069 -0.25175,0.3428 -0.24103,0.54634c0.01071,0.18747 0.08838,0.35619 0.233,0.50617c0.14998,0.14462 0.32138,0.22764 0.5142,0.24907c0.21961,0.02143 0.41511,-0.04821 0.58651,-0.20889c0.59455,-0.53563 0.9561,-1.12214 1.08465,-1.75954c0.14462,-0.71239 -0.04285,-1.34978 -0.56241,-1.91219c-0.4285,-0.47135 -1.00698,-0.50349 -1.73543,-0.09641c-0.26246,0.14462 -0.54366,0.34816 -0.84361,0.61062c-0.11248,0.09641 -0.23032,0.20354 -0.35351,0.32138c-0.0857,0.0857 -0.17944,0.18211 -0.2812,0.28924c-0.57312,0.58383 -0.89182,1.22659 -0.9561,1.92826c-0.06428,0.72845 0.15265,1.39799 0.65079,2.0086c0.23032,0.27853 0.60526,0.51688 1.12482,0.71506l0.32941,0.11248l0.32138,0.10445c0.27317,0.09106 0.47939,0.16604 0.61865,0.22496c0.25175,0.10713 0.37762,0.31602 0.37762,0.62668c-0.00536,0.26246 -0.10177,0.55973 -0.28924,0.89182c-0.18211,0.31066 -0.39101,0.55705 -0.62668,0.73917c-0.25175,0.19818 -0.46332,0.25978 -0.63472,0.18479c-0.21425,-0.09106 -0.42315,-0.09641 -0.62668,-0.01607c-0.18747,0.07499 -0.33477,0.20354 -0.44189,0.38565c-0.10713,0.18211 -0.13926,0.36155 -0.09641,0.53831c0.04285,0.19283 0.1714,0.33745 0.38565,0.43386c0.50885,0.22496 1.02841,0.24639 1.55868,0.06428c0.48207,-0.16069 0.92664,-0.466 1.33371,-0.91592c0.38565,-0.4285 0.67221,-0.91592 0.85968,-1.46226c0.19283,-0.56777 0.24103,-1.09268 0.14462,-1.57475c-0.09106,-0.47135 -0.44189,-0.86772 -1.05251,-1.18909c-0.21425,-0.10713 -0.48207,-0.21961 -0.80344,-0.33745l-0.19283,-0.06428l-0.19283,-0.06428c-0.16604,-0.05356 -0.28388,-0.09373 -0.35351,-0.12052z" data-paper-data="{&quot;glyphName&quot;:&quot;S&quot;,&quot;glyphIndex&quot;:17,&quot;word&quot;:2}"></path><path d="M277.56879,349.98158c-0.14998,-0.32673 -0.37226,-0.53563 -0.66686,-0.62668c-0.14998,-0.04821 -0.31066,-0.04017 -0.48207,0.0241c-0.16069,0.05892 -0.29192,0.14998 -0.39369,0.27317c-0.15533,0.20889 -0.24371,0.41511 -0.26514,0.61865c-0.02143,0.23568 0.00268,0.45528 0.07231,0.65882c0.02143,0.05356 0.04553,0.1098 0.07231,0.16872c0,0.00536 0.00536,0.01607 0.01607,0.03214l0.03214,0.04821c0.02143,0.04285 0.03214,0.06695 0.03214,0.07231l-0.11248,0.22496l-0.11248,0.21693c-0.10177,0.18747 -0.17408,0.33209 -0.21693,0.43386c-0.10177,0.24639 -0.09909,0.48207 0.00803,0.70703c0.11784,0.24103 0.31334,0.33209 0.58651,0.27317c0.23032,-0.05356 0.45796,-0.21157 0.68293,-0.47403c0.08034,-0.10177 0.16604,-0.22229 0.2571,-0.36155l0.12052,-0.17676l0.04821,-0.08838l0.05624,-0.08838c0.08034,-0.13391 0.15533,-0.27853 0.22496,-0.43386c0.0857,-0.25175 0.13659,-0.4901 0.15265,-0.71506c0.03214,-0.28924 -0.00536,-0.5517 -0.11248,-0.78737z" data-paper-data="{&quot;glyphName&quot;:&quot;,&quot;,&quot;glyphIndex&quot;:18,&quot;lastGlyphOfWord&quot;:true,&quot;word&quot;:2}"></path><path d="M292.36283,342.79881c0.5999,-0.17676 1.14089,-0.28924 1.62295,-0.33745c0.23568,-0.02143 0.42047,-0.12052 0.55437,-0.29727c0.12319,-0.15533 0.18747,-0.33745 0.19283,-0.54634c0,-0.20889 -0.0616,-0.3803 -0.18479,-0.5142c-0.13926,-0.14998 -0.32673,-0.21425 -0.56241,-0.19283c-0.75524,0.07499 -1.65241,0.28388 -2.69153,0.62668l-0.65079,0.22496l-0.65079,0.233c-0.53027,0.18211 -0.97216,0.32405 -1.32568,0.42582c-0.22496,0.06963 -0.38297,0.20086 -0.47403,0.39369c-0.08034,0.17676 -0.09373,0.36423 -0.04017,0.56241c0.05892,0.20354 0.16604,0.35887 0.32138,0.466c0.17676,0.11248 0.37762,0.13659 0.60258,0.07231c0.26246,-0.07499 0.55705,-0.1714 0.88379,-0.28924l0.87575,-0.31334c0.02678,0.55705 0.04285,1.19445 0.04821,1.91219v1.91219c0,1.65509 0.0241,2.92988 0.07231,3.82438c0.01071,0.23568 0.09909,0.42315 0.26514,0.56241c0.15533,0.12319 0.33745,0.18479 0.54634,0.18479c0.20889,0 0.38297,-0.0616 0.52224,-0.18479c0.15533,-0.13926 0.22496,-0.32673 0.20889,-0.56241c-0.03214,-0.60526 -0.05088,-1.28551 -0.05624,-2.04074l-0.00803,-1.02037v-1.02037c0,-1.81042 -0.0241,-3.17092 -0.07231,-4.08149z" data-paper-data="{&quot;glyphName&quot;:&quot;T&quot;,&quot;glyphIndex&quot;:19,&quot;firstGlyphOfWord&quot;:true,&quot;word&quot;:3}"></path><path d="M300.5874,345.28144c0,-0.05356 -0.00268,-0.15265 -0.00803,-0.29727l-0.00803,-0.09641v-0.10445c-0.00536,-0.0857 -0.01071,-0.16337 -0.01607,-0.233c-0.01607,-0.41779 -0.02143,-0.77398 -0.01607,-1.06858c0.01071,-0.93735 0.12319,-1.44887 0.33745,-1.53457c0.18211,-0.06428 0.43118,-0.0857 0.7472,-0.06428c0.3428,0.02678 0.63472,0.10177 0.87575,0.22496c0.66953,0.33745 0.70703,0.87843 0.11248,1.62295c-0.11248,0.13926 -0.26514,0.2812 -0.45796,0.42582l-0.26514,0.18479l-0.26514,0.17676l-0.12052,0.08034l-0.12855,0.08838l-0.26514,0.18479c-0.21425,0.14998 -0.38833,0.28656 -0.52224,0.40976zM302.14608,346.98474c-0.15533,-0.16604 -0.29995,-0.35887 -0.43386,-0.57848c0.02678,-0.03214 0.05624,-0.06695 0.08838,-0.10445c0.15533,-0.13926 0.36423,-0.29995 0.62668,-0.48207l0.33745,-0.21693l0.32138,-0.22496c0.95342,-0.6856 1.46762,-1.58814 1.54261,-2.7076c0.03214,-0.50885 -0.13659,-0.95877 -0.50617,-1.34978c-0.33209,-0.35351 -0.78202,-0.62133 -1.34978,-0.80344c-0.54634,-0.1714 -1.09268,-0.233 -1.63902,-0.18479c-0.56777,0.04285 -1.02037,0.1955 -1.35782,0.45796c-0.33745,0.26246 -0.5517,0.66686 -0.64275,1.2132c-0.02678,0.19283 -0.04553,0.43118 -0.05624,0.71506l-0.00803,0.35351c0,0.14998 -0.00268,0.26514 -0.00803,0.34548l-0.04017,0.9561l-0.04017,0.94806c-0.02678,0.73381 -0.03214,1.37121 -0.01607,1.91219l0.03214,1.10072l0.04821,1.09268c0.01071,0.23568 0.09909,0.42315 0.26514,0.56241c0.14998,0.12319 0.32941,0.18479 0.53831,0.18479c0.20889,0 0.38297,-0.0616 0.52224,-0.18479c0.15533,-0.13926 0.23032,-0.32673 0.22496,-0.56241c-0.02143,-0.48207 -0.03214,-1.0659 -0.03214,-1.7515c0.28924,0.38565 0.71506,0.8088 1.27747,1.26944c0.36958,0.30531 0.89985,0.70435 1.59082,1.19713c1.39799,1.00162 2.20411,1.67116 2.41836,2.0086c0.12319,0.19818 0.29192,0.31602 0.50617,0.35351c0.19283,0.03214 0.37762,-0.00536 0.55437,-0.11248c0.18211,-0.10713 0.30263,-0.24907 0.36155,-0.42582c0.06428,-0.19818 0.03482,-0.39636 -0.08838,-0.59455c-0.45528,-0.7231 -1.25337,-1.4944 -2.39426,-2.31391l-0.69096,-0.4901c-0.27853,-0.19818 -0.50617,-0.36423 -0.68293,-0.49813c-0.51956,-0.38565 -0.94271,-0.7472 -1.26944,-1.08465z" data-paper-data="{&quot;glyphName&quot;:&quot;R&quot;,&quot;glyphIndex&quot;:20,&quot;word&quot;:3}"></path><path d="M315.1913,345.25734c-0.33209,0.10177 -0.65079,0.22764 -0.9561,0.37762c0.28924,-0.90521 0.62936,-1.70598 1.02037,-2.40229c0,0.2571 -0.00803,0.59455 -0.0241,1.01234l-0.0241,0.50617zM316.93477,350.72878c-0.20354,-2.32463 -0.26781,-4.60908 -0.19283,-6.85336c0.02678,-0.84094 0.02143,-1.48101 -0.01607,-1.92023l-0.01607,-0.17676l-0.01607,-0.18479c-0.02143,-0.14998 -0.04553,-0.2812 -0.07231,-0.39369c-0.07499,-0.30531 -0.19283,-0.52492 -0.35351,-0.65882c-0.11784,-0.09641 -0.28924,-0.13659 -0.5142,-0.12052c-0.23032,0.01071 -0.39636,0.07499 -0.49813,0.19283l-0.08838,0.09641l-0.03214,0.03214l-0.03214,0.03214c-1.01769,1.18909 -1.82114,2.76652 -2.41033,4.73227c-0.20889,0.70703 -0.42582,1.5801 -0.65079,2.61922l-0.27317,1.31764c-0.11248,0.54634 -0.20354,0.97752 -0.27317,1.29354c-0.05356,0.23032 -0.01607,0.43386 0.11248,0.61062c0.11248,0.16069 0.26781,0.27049 0.466,0.32941c0.20354,0.05356 0.38833,0.04017 0.55437,-0.04017c0.18747,-0.09106 0.30531,-0.25175 0.35351,-0.48207c0.08034,-0.35887 0.19015,-0.88111 0.32941,-1.56671l0.16069,-0.80344l0.16872,-0.81148c0.4285,-0.46064 0.94538,-0.81683 1.55064,-1.06858c0.02678,1.35514 0.09106,2.62993 0.19283,3.82438c0.02143,0.23032 0.11784,0.41511 0.28924,0.55437c0.15533,0.12319 0.33745,0.18479 0.54634,0.18479c0.20889,0 0.3803,-0.0616 0.5142,-0.18479c0.14998,-0.13926 0.21693,-0.32405 0.20086,-0.55437z" data-paper-data="{&quot;glyphName&quot;:&quot;A&quot;,&quot;glyphIndex&quot;:21,&quot;word&quot;:3}"></path><path d="M328.30079,349.82892c-0.28924,-1.14089 -0.65882,-2.52013 -1.10875,-4.13773l-0.57044,-2.06485l-0.57848,-2.05681c-0.06428,-0.23032 -0.19283,-0.39101 -0.38565,-0.48207c-0.1714,-0.08034 -0.35887,-0.09373 -0.56241,-0.04017c-0.20354,0.05892 -0.35619,0.16604 -0.45796,0.32138c-0.12319,0.17676 -0.15265,0.3803 -0.08838,0.61062l0.466,1.66312l0.466,1.67116c0.36958,1.32836 0.67489,2.44246 0.91592,3.34232l-0.01607,-0.0241c-0.20889,-0.3428 -0.44189,-0.76059 -0.69899,-1.25337l-0.32941,-0.63472l-0.32941,-0.63472l-0.11248,-0.21693l-0.11248,-0.233c-0.10713,-0.20354 -0.19015,-0.36155 -0.24907,-0.47403c-0.20354,-0.38565 -0.39369,-0.71239 -0.57044,-0.9802c-0.48742,-0.73917 -1.00966,-1.2132 -1.56671,-1.42209c-0.64275,-0.25175 -1.05251,-0.04017 -1.22927,0.63472c-0.05892,0.24103 -0.08838,0.54098 -0.08838,0.89985c0,0.13391 0.00536,0.27853 0.01607,0.43386l0.00803,0.19283c0.00536,0.04821 0.01071,0.10445 0.01607,0.16872c0.05892,0.65347 0.06963,1.62831 0.03214,2.92453l-0.01607,0.73113v0.73113c0,0.54634 0.01875,1.03644 0.05624,1.4703c0.01607,0.23032 0.11248,0.41511 0.28924,0.55437c0.15533,0.12319 0.33745,0.18479 0.54634,0.18479c0.20889,0 0.3803,-0.0616 0.5142,-0.18479c0.14998,-0.13926 0.21425,-0.32405 0.19283,-0.55437c-0.05892,-0.6856 -0.08302,-1.52118 -0.07231,-2.50674l0.0241,-1.25337l0.0241,-1.2614c0,-0.20889 -0.01339,-0.48474 -0.04017,-0.82755l0.16872,0.27317l0.16872,0.2812c0.1714,0.28924 0.35887,0.62133 0.56241,0.99627l0.26514,0.50617l0.26514,0.50617c0.46064,0.8945 0.82755,1.56403 1.10072,2.0086c0.16069,0.2571 0.29727,0.46867 0.40976,0.63472c0.1714,0.24639 0.34012,0.45528 0.50617,0.62668c0.42315,0.44457 0.85968,0.68025 1.30961,0.70703c0.26781,0.02143 0.4901,-0.10445 0.66686,-0.37762c0.16604,-0.26246 0.23835,-0.64543 0.21693,-1.14892c0.01071,-0.09641 0.00268,-0.19818 -0.0241,-0.30531z" data-paper-data="{&quot;glyphName&quot;:&quot;N&quot;,&quot;glyphIndex&quot;:22,&quot;word&quot;:3}"></path><path d="M334.14717,345.85992c-0.66953,-0.23568 -0.94538,-0.62668 -0.82755,-1.17303c0.09106,-0.40708 0.3803,-0.85165 0.86772,-1.33371c0.23032,-0.23032 0.40708,-0.35887 0.53027,-0.38565c0.10177,-0.02143 0.14998,0.03482 0.14462,0.16872c-0.00536,0.12319 -0.05624,0.27585 -0.15265,0.45796c-0.11248,0.19283 -0.24639,0.36155 -0.40172,0.50617c-0.1714,0.16069 -0.25175,0.3428 -0.24103,0.54634c0.01071,0.18747 0.08838,0.35619 0.233,0.50617c0.14998,0.14462 0.32138,0.22764 0.5142,0.24907c0.21961,0.02143 0.41511,-0.04821 0.58651,-0.20889c0.59455,-0.53563 0.9561,-1.12214 1.08465,-1.75954c0.14462,-0.71239 -0.04285,-1.34978 -0.56241,-1.91219c-0.4285,-0.47135 -1.00698,-0.50349 -1.73543,-0.09641c-0.26246,0.14462 -0.54366,0.34816 -0.84361,0.61062c-0.11248,0.09641 -0.23032,0.20354 -0.35351,0.32138c-0.0857,0.0857 -0.17944,0.18211 -0.2812,0.28924c-0.57312,0.58383 -0.89182,1.22659 -0.9561,1.92826c-0.06428,0.72845 0.15265,1.39799 0.65079,2.0086c0.23032,0.27853 0.60526,0.51688 1.12482,0.71506l0.32941,0.11248l0.32138,0.10445c0.27317,0.09106 0.47939,0.16604 0.61865,0.22496c0.25175,0.10713 0.37762,0.31602 0.37762,0.62668c-0.00536,0.26246 -0.10177,0.55973 -0.28924,0.89182c-0.18211,0.31066 -0.39101,0.55705 -0.62668,0.73917c-0.25175,0.19818 -0.46332,0.25978 -0.63472,0.18479c-0.21425,-0.09106 -0.42315,-0.09641 -0.62668,-0.01607c-0.18747,0.07499 -0.33477,0.20354 -0.44189,0.38565c-0.10713,0.18211 -0.13926,0.36155 -0.09641,0.53831c0.04285,0.19283 0.1714,0.33745 0.38565,0.43386c0.50885,0.22496 1.02841,0.24639 1.55868,0.06428c0.48207,-0.16069 0.92664,-0.466 1.33371,-0.91592c0.38565,-0.4285 0.67221,-0.91592 0.85968,-1.46226c0.19283,-0.56777 0.24103,-1.09268 0.14462,-1.57475c-0.09106,-0.47135 -0.44189,-0.86772 -1.05251,-1.18909c-0.21425,-0.10713 -0.48207,-0.21961 -0.80344,-0.33745l-0.19283,-0.06428l-0.19283,-0.06428c-0.16604,-0.05356 -0.28388,-0.09373 -0.35351,-0.12052z" data-paper-data="{&quot;glyphName&quot;:&quot;S&quot;,&quot;glyphIndex&quot;:23,&quot;word&quot;:3}"></path><path d="M341.35137,350.96178c-0.00536,0.23568 0.07231,0.42315 0.233,0.56241c0.14462,0.12319 0.32138,0.18479 0.53027,0.18479c0.21425,0 0.39369,-0.0616 0.53831,-0.18479c0.16069,-0.13926 0.24103,-0.32673 0.24103,-0.56241c0.00536,-1.29622 -0.01607,-2.52013 -0.06428,-3.67173c0.15533,-0.07499 0.3803,-0.19283 0.67489,-0.35351l0.33745,-0.18479l0.33745,-0.17676c0.53563,-0.27317 1.01501,-0.44993 1.43816,-0.53027c0.23032,-0.04285 0.39101,-0.15533 0.48207,-0.33745c0.0857,-0.16069 0.09909,-0.3428 0.04017,-0.54634c-0.05356,-0.19818 -0.16069,-0.35619 -0.32138,-0.47403c-0.18211,-0.12855 -0.38833,-0.1714 -0.61865,-0.12855c-0.39101,0.07499 -0.81683,0.21693 -1.27747,0.42582c-0.17676,0.08034 -0.37762,0.17944 -0.60258,0.29727l-0.60258,0.32941l-0.01607,-0.24907l-0.01607,-0.24907c-0.06428,-0.70167 -0.06428,-1.2132 0,-1.53457c0.10713,-0.5142 0.39101,-0.92128 0.85165,-1.22123c0.40172,-0.2571 0.80076,-0.45528 1.19713,-0.59455c0.49813,-0.1714 0.93467,-0.22496 1.30961,-0.16069c0.23032,0.03749 0.43386,-0.00803 0.61062,-0.13659c0.16069,-0.11784 0.27049,-0.27853 0.32941,-0.48207c0.05356,-0.20354 0.03749,-0.38565 -0.04821,-0.54634c-0.09106,-0.17676 -0.25175,-0.28656 -0.48207,-0.32941c-0.87843,-0.14998 -1.79168,-0.02143 -2.73974,0.38565c-0.92128,0.40172 -1.65509,0.96681 -2.20143,1.69526c-0.28924,0.38565 -0.44189,0.92931 -0.45796,1.63099c-0.00536,0.25175 0.00803,0.54902 0.04017,0.89182c0.01071,0.10713 0.0241,0.24907 0.04017,0.42582l0.0241,0.20889l0.01607,0.19283c0.12855,1.3605 0.18747,3.16824 0.17676,5.42323z" data-paper-data="{&quot;glyphName&quot;:&quot;F&quot;,&quot;glyphIndex&quot;:24,&quot;word&quot;:3}"></path><path d="M354.0029,346.81602c-0.00536,0.04821 -0.01607,0.13391 -0.03214,0.2571c-0.02143,0.14998 -0.04821,0.31066 -0.08034,0.48207c-0.0857,0.47135 -0.18479,0.89182 -0.29727,1.2614c-0.33209,1.12482 -0.69096,1.53993 -1.07661,1.24534c-0.38565,-0.2946 -0.6374,-0.8329 -0.75524,-1.61492c-0.04285,-0.28388 -0.06963,-0.60794 -0.08034,-0.97216c0,-0.13926 0,-0.29192 0,-0.45796v-0.20086v-0.19283c0,-0.04285 0.01071,-0.12855 0.03214,-0.2571c0.02143,-0.14462 0.04821,-0.30531 0.08034,-0.48207c0.0857,-0.466 0.18479,-0.88646 0.29727,-1.2614c0.33745,-1.11946 0.69632,-1.5319 1.07661,-1.2373c0.38565,0.28924 0.6374,0.82487 0.75524,1.60688c0.04285,0.28388 0.06963,0.61062 0.08034,0.9802c0.00536,0.13391 0.00536,0.28388 0,0.44993v0.20889zM353.00663,341.73826c-0.99091,0.09106 -1.73543,0.70971 -2.23357,1.85595c-0.18747,0.44457 -0.33745,0.96413 -0.44993,1.55868c-0.0857,0.45528 -0.1473,0.95342 -0.18479,1.4944c-0.03214,0.40708 -0.01607,0.87575 0.04821,1.40602c0.06963,0.6374 0.19015,1.21052 0.36155,1.71937c0.46064,1.37121 1.17035,2.01396 2.12912,1.92826c0.99091,-0.09106 1.73543,-0.70971 2.23357,-1.85595c0.18747,-0.44457 0.33745,-0.96145 0.44993,-1.55064c0.0857,-0.45528 0.1473,-0.9561 0.18479,-1.50244c0.00536,-0.44457 -0.01875,-0.91325 -0.07231,-1.40602c-0.06963,-0.64811 -0.18479,-1.22123 -0.34548,-1.71937c-0.43921,-1.37121 -1.14624,-2.01396 -2.12109,-1.92826z" data-paper-data="{&quot;glyphName&quot;:&quot;O&quot;,&quot;glyphIndex&quot;:25,&quot;word&quot;:3}"></path><path d="M361.40795,345.28144c0,-0.05356 -0.00268,-0.15265 -0.00803,-0.29727l-0.00803,-0.09641v-0.10445c-0.00536,-0.0857 -0.01071,-0.16337 -0.01607,-0.233c-0.01607,-0.41779 -0.02143,-0.77398 -0.01607,-1.06858c0.01071,-0.93735 0.12319,-1.44887 0.33745,-1.53457c0.18211,-0.06428 0.43118,-0.0857 0.7472,-0.06428c0.3428,0.02678 0.63472,0.10177 0.87575,0.22496c0.66953,0.33745 0.70703,0.87843 0.11248,1.62295c-0.11248,0.13926 -0.26514,0.2812 -0.45796,0.42582l-0.26514,0.18479l-0.26514,0.17676l-0.12052,0.08034l-0.12855,0.08838l-0.26514,0.18479c-0.21425,0.14998 -0.38833,0.28656 -0.52224,0.40976zM362.96663,346.98474c-0.15533,-0.16604 -0.29995,-0.35887 -0.43386,-0.57848c0.02678,-0.03214 0.05624,-0.06695 0.08838,-0.10445c0.15533,-0.13926 0.36423,-0.29995 0.62668,-0.48207l0.33745,-0.21693l0.32138,-0.22496c0.95342,-0.6856 1.46762,-1.58814 1.54261,-2.7076c0.03214,-0.50885 -0.13659,-0.95877 -0.50617,-1.34978c-0.33209,-0.35351 -0.78202,-0.62133 -1.34978,-0.80344c-0.54634,-0.1714 -1.09268,-0.233 -1.63902,-0.18479c-0.56777,0.04285 -1.02037,0.1955 -1.35782,0.45796c-0.33745,0.26246 -0.5517,0.66686 -0.64275,1.2132c-0.02678,0.19283 -0.04553,0.43118 -0.05624,0.71506l-0.00803,0.35351c0,0.14998 -0.00268,0.26514 -0.00803,0.34548l-0.04017,0.9561l-0.04017,0.94806c-0.02678,0.73381 -0.03214,1.37121 -0.01607,1.91219l0.03214,1.10072l0.04821,1.09268c0.01071,0.23568 0.09909,0.42315 0.26514,0.56241c0.14998,0.12319 0.32941,0.18479 0.53831,0.18479c0.20889,0 0.38297,-0.0616 0.52224,-0.18479c0.15533,-0.13926 0.23032,-0.32673 0.22496,-0.56241c-0.02143,-0.48207 -0.03214,-1.0659 -0.03214,-1.7515c0.28924,0.38565 0.71506,0.8088 1.27747,1.26944c0.36958,0.30531 0.89985,0.70435 1.59082,1.19713c1.39799,1.00162 2.20411,1.67116 2.41836,2.0086c0.12319,0.19818 0.29192,0.31602 0.50617,0.35351c0.19283,0.03214 0.37762,-0.00536 0.55437,-0.11248c0.18211,-0.10713 0.30263,-0.24907 0.36155,-0.42582c0.06428,-0.19818 0.03482,-0.39636 -0.08838,-0.59455c-0.45528,-0.7231 -1.25337,-1.4944 -2.39426,-2.31391l-0.69096,-0.4901c-0.27853,-0.19818 -0.50617,-0.36423 -0.68293,-0.49813c-0.51956,-0.38565 -0.94271,-0.7472 -1.26944,-1.08465z" data-paper-data="{&quot;glyphName&quot;:&quot;R&quot;,&quot;glyphIndex&quot;:26,&quot;word&quot;:3}"></path><path d="M379.24972,350.73681c-0.18747,-0.96949 -0.37226,-2.35676 -0.55437,-4.16183l-0.10445,-1.05251l-0.11248,-1.04447c-0.09106,-0.77666 -0.19015,-1.4703 -0.29727,-2.08091c-0.05892,-0.33745 -0.26781,-0.51956 -0.62668,-0.54634c-0.35351,-0.02678 -0.61597,0.09373 -0.78737,0.36155c-0.39636,0.6374 -0.74988,1.49708 -1.06054,2.57905c-0.05356,-0.49813 -0.11784,-1.05251 -0.19283,-1.66312c-0.01607,-0.12855 -0.03214,-0.24103 -0.04821,-0.33745c-0.01607,-0.13391 -0.03749,-0.25978 -0.06428,-0.37762c-0.05892,-0.28388 -0.13659,-0.52759 -0.233,-0.73113c-0.24639,-0.53563 -0.61865,-0.80344 -1.11678,-0.80344c-0.55705,0 -1.04447,0.38565 -1.46226,1.15696c-0.16069,0.28924 -0.30531,0.62133 -0.43386,0.99627c-0.09641,0.28388 -0.17944,0.57848 -0.24907,0.88379c-0.21425,0.92664 -0.27853,2.08895 -0.19283,3.48694l0.06428,0.86772l0.06428,0.86772c0.04821,0.6856 0.06963,1.26944 0.06428,1.7515c-0.00536,0.23568 0.07231,0.42315 0.233,0.56241c0.13926,0.12319 0.31602,0.18479 0.53027,0.18479c0.20889,0 0.38565,-0.0616 0.53027,-0.18479c0.16604,-0.13926 0.24907,-0.32673 0.24907,-0.56241c0.01071,-0.5142 -0.01607,-1.19177 -0.08034,-2.03271l-0.03214,-0.50617l-0.04017,-0.49813c-0.02678,-0.38565 -0.04285,-0.71774 -0.04821,-0.99627c-0.04821,-1.56403 0.17944,-2.87364 0.68293,-3.92883c0.03214,0.18747 0.05624,0.35351 0.07231,0.49813l0.04821,0.41779l0.04821,0.41779c0.21425,1.49976 0.31602,3.02362 0.30531,4.57158c-0.00536,0.37494 0.1714,0.61329 0.53027,0.71506c0.36423,0.15533 0.65079,0.07231 0.85968,-0.24907l0.0241,-0.03214l0.01607,-0.0241l0.00803,-0.01607l0.00803,-0.00803c0.01607,-0.03749 0.03214,-0.07231 0.04821,-0.10445c0.23032,-0.47671 0.44993,-1.06054 0.65882,-1.7515c0.06428,-0.22496 0.1473,-0.52759 0.24907,-0.90789l0.12052,-0.44993l0.12855,-0.45796l0.14462,1.40602l0.14462,1.40602c0.12319,1.07661 0.26246,2.00593 0.41779,2.78794c0.04285,0.23032 0.15533,0.39369 0.33745,0.4901c0.16604,0.08034 0.35084,0.09373 0.55437,0.04017c0.19818,-0.05892 0.35619,-0.16872 0.47403,-0.32941c0.12855,-0.17676 0.16872,-0.3803 0.12052,-0.61062z" data-paper-data="{&quot;glyphName&quot;:&quot;M&quot;,&quot;glyphIndex&quot;:27,&quot;word&quot;:3}"></path><path d="M387.14488,345.25734c-0.33209,0.10177 -0.65079,0.22764 -0.9561,0.37762c0.28924,-0.90521 0.62936,-1.70598 1.02037,-2.40229c0,0.2571 -0.00803,0.59455 -0.0241,1.01234l-0.0241,0.50617zM388.88835,350.72878c-0.20354,-2.32463 -0.26781,-4.60908 -0.19283,-6.85336c0.02678,-0.84094 0.02143,-1.48101 -0.01607,-1.92023l-0.01607,-0.17676l-0.01607,-0.18479c-0.02143,-0.14998 -0.04553,-0.2812 -0.07231,-0.39369c-0.07499,-0.30531 -0.19283,-0.52492 -0.35351,-0.65882c-0.11784,-0.09641 -0.28924,-0.13659 -0.5142,-0.12052c-0.23032,0.01071 -0.39636,0.07499 -0.49813,0.19283l-0.08838,0.09641l-0.03214,0.03214l-0.03214,0.03214c-1.01769,1.18909 -1.82114,2.76652 -2.41033,4.73227c-0.20889,0.70703 -0.42582,1.5801 -0.65079,2.61922l-0.27317,1.31764c-0.11248,0.54634 -0.20354,0.97752 -0.27317,1.29354c-0.05356,0.23032 -0.01607,0.43386 0.11248,0.61062c0.11248,0.16069 0.26781,0.27049 0.466,0.32941c0.20354,0.05356 0.38833,0.04017 0.55437,-0.04017c0.18747,-0.09106 0.30531,-0.25175 0.35351,-0.48207c0.08034,-0.35887 0.19015,-0.88111 0.32941,-1.56671l0.16069,-0.80344l0.16872,-0.81148c0.4285,-0.46064 0.94538,-0.81683 1.55064,-1.06858c0.02678,1.35514 0.09106,2.62993 0.19283,3.82438c0.02143,0.23032 0.11784,0.41511 0.28924,0.55437c0.15533,0.12319 0.33745,0.18479 0.54634,0.18479c0.20889,0 0.3803,-0.0616 0.5142,-0.18479c0.14998,-0.13926 0.21693,-0.32405 0.20086,-0.55437z" data-paper-data="{&quot;glyphName&quot;:&quot;A&quot;,&quot;glyphIndex&quot;:28,&quot;word&quot;:3}"></path><path d="M400.25437,349.82892c-0.28924,-1.14089 -0.65882,-2.52013 -1.10875,-4.13773l-0.57044,-2.06485l-0.57848,-2.05681c-0.06428,-0.23032 -0.19283,-0.39101 -0.38565,-0.48207c-0.1714,-0.08034 -0.35887,-0.09373 -0.56241,-0.04017c-0.20354,0.05892 -0.35619,0.16604 -0.45796,0.32138c-0.12319,0.17676 -0.15265,0.3803 -0.08838,0.61062l0.466,1.66312l0.466,1.67116c0.36958,1.32836 0.67489,2.44246 0.91592,3.34232l-0.01607,-0.0241c-0.20889,-0.3428 -0.44189,-0.76059 -0.69899,-1.25337l-0.32941,-0.63472l-0.32941,-0.63472l-0.11248,-0.21693l-0.11248,-0.233c-0.10713,-0.20354 -0.19015,-0.36155 -0.24907,-0.47403c-0.20354,-0.38565 -0.39369,-0.71239 -0.57044,-0.9802c-0.48742,-0.73917 -1.00966,-1.2132 -1.56671,-1.42209c-0.64275,-0.25175 -1.05251,-0.04017 -1.22927,0.63472c-0.05892,0.24103 -0.08838,0.54098 -0.08838,0.89985c0,0.13391 0.00536,0.27853 0.01607,0.43386l0.00803,0.19283c0.00536,0.04821 0.01071,0.10445 0.01607,0.16872c0.05892,0.65347 0.06963,1.62831 0.03214,2.92453l-0.01607,0.73113v0.73113c0,0.54634 0.01875,1.03644 0.05624,1.4703c0.01607,0.23032 0.11248,0.41511 0.28924,0.55437c0.15533,0.12319 0.33745,0.18479 0.54634,0.18479c0.20889,0 0.3803,-0.0616 0.5142,-0.18479c0.14998,-0.13926 0.21425,-0.32405 0.19283,-0.55437c-0.05892,-0.6856 -0.08302,-1.52118 -0.07231,-2.50674l0.0241,-1.25337l0.0241,-1.2614c0,-0.20889 -0.01339,-0.48474 -0.04017,-0.82755l0.16872,0.27317l0.16872,0.2812c0.1714,0.28924 0.35887,0.62133 0.56241,0.99627l0.26514,0.50617l0.26514,0.50617c0.46064,0.8945 0.82755,1.56403 1.10072,2.0086c0.16069,0.2571 0.29727,0.46867 0.40976,0.63472c0.1714,0.24639 0.34012,0.45528 0.50617,0.62668c0.42315,0.44457 0.85968,0.68025 1.30961,0.70703c0.26781,0.02143 0.4901,-0.10445 0.66686,-0.37762c0.16604,-0.26246 0.23835,-0.64543 0.21693,-1.14892c0.01071,-0.09641 0.00268,-0.19818 -0.0241,-0.30531z" data-paper-data="{&quot;glyphName&quot;:&quot;N&quot;,&quot;glyphIndex&quot;:29,&quot;word&quot;:3}"></path><path d="M406.1811,350.07799c-0.03214,0.02678 -0.05624,0.04821 -0.07231,0.06428c-0.01607,0.01071 -0.02143,0.01339 -0.01607,0.00803c0.00536,-0.01071 0.01607,-0.02143 0.03214,-0.03214c0.02143,-0.01607 0.04017,-0.02946 0.05624,-0.04017zM409.72427,346.38216c-0.11784,-0.93199 -0.5142,-1.92023 -1.18909,-2.9647c-0.24103,-0.36958 -0.55973,-0.8088 -0.9561,-1.31764l-0.4901,-0.63472c-0.20889,-0.26246 -0.37226,-0.47135 -0.4901,-0.62668c-0.13926,-0.18747 -0.32138,-0.2946 -0.54634,-0.32138c-0.19818,-0.02678 -0.38833,0.01339 -0.57044,0.12052c-0.18211,0.10177 -0.29727,0.23835 -0.34548,0.40976c-0.05892,0.19283 -0.01607,0.38297 0.12855,0.57044c0.12319,0.16069 0.3187,0.40976 0.58651,0.7472l0.31334,0.39369l0.31334,0.40172c0.49813,0.65347 0.87307,1.22391 1.12482,1.71133c0.71774,1.37656 0.72042,2.59244 0.00803,3.64763c-0.27853,0.41243 -0.66686,0.85165 -1.16499,1.31764c-0.04285,0.04285 -0.08034,0.07767 -0.11248,0.10445l-0.04017,-0.48207l-0.03214,-0.48207c-0.06428,-0.82487 -0.12052,-1.75686 -0.16872,-2.79598c-0.02678,-0.62668 -0.05624,-1.56136 -0.08838,-2.80401c-0.01071,-0.23568 -0.09909,-0.42315 -0.26514,-0.56241c-0.14462,-0.12319 -0.32138,-0.18479 -0.53027,-0.18479c-0.21425,0 -0.39101,0.0616 -0.53027,0.18479c-0.15533,0.13926 -0.23032,0.32673 -0.22496,0.56241l0.0241,0.93199l0.01607,0.94003c0.01607,0.79273 0.03214,1.42477 0.04821,1.89612c0.05892,1.46226 0.17944,2.71028 0.36155,3.74404c0.12855,0.71239 0.56509,0.96145 1.30961,0.7472c0.27317,-0.08034 0.56777,-0.21961 0.88379,-0.41779c0.26246,-0.16604 0.48474,-0.33209 0.66686,-0.49813c1.49976,-1.39263 2.15322,-2.83883 1.9604,-4.33859z" data-paper-data="{&quot;glyphName&quot;:&quot;D&quot;,&quot;glyphIndex&quot;:30,&quot;word&quot;:3}"></path><path d="M417.83636,346.81602c-0.00536,0.04821 -0.01607,0.13391 -0.03214,0.2571c-0.02143,0.14998 -0.04821,0.31066 -0.08034,0.48207c-0.0857,0.47135 -0.18479,0.89182 -0.29727,1.2614c-0.33209,1.12482 -0.69096,1.53993 -1.07661,1.24534c-0.38565,-0.2946 -0.6374,-0.8329 -0.75524,-1.61492c-0.04285,-0.28388 -0.06963,-0.60794 -0.08034,-0.97216c0,-0.13926 0,-0.29192 0,-0.45796v-0.20086v-0.19283c0,-0.04285 0.01071,-0.12855 0.03214,-0.2571c0.02143,-0.14462 0.04821,-0.30531 0.08034,-0.48207c0.0857,-0.466 0.18479,-0.88646 0.29727,-1.2614c0.33745,-1.11946 0.69632,-1.5319 1.07661,-1.2373c0.38565,0.28924 0.6374,0.82487 0.75524,1.60688c0.04285,0.28388 0.06963,0.61062 0.08034,0.9802c0.00536,0.13391 0.00536,0.28388 0,0.44993v0.20889zM416.84009,341.73826c-0.99091,0.09106 -1.73543,0.70971 -2.23357,1.85595c-0.18747,0.44457 -0.33745,0.96413 -0.44993,1.55868c-0.0857,0.45528 -0.1473,0.95342 -0.18479,1.4944c-0.03214,0.40708 -0.01607,0.87575 0.04821,1.40602c0.06963,0.6374 0.19015,1.21052 0.36155,1.71937c0.46064,1.37121 1.17035,2.01396 2.12912,1.92826c0.99091,-0.09106 1.73543,-0.70971 2.23357,-1.85595c0.18747,-0.44457 0.33745,-0.96145 0.44993,-1.55064c0.0857,-0.45528 0.1473,-0.9561 0.18479,-1.50244c0.00536,-0.44457 -0.01875,-0.91325 -0.07231,-1.40602c-0.06963,-0.64811 -0.18479,-1.22123 -0.34548,-1.71937c-0.43921,-1.37121 -1.14624,-2.01396 -2.12109,-1.92826z" data-paper-data="{&quot;glyphName&quot;:&quot;O&quot;,&quot;glyphIndex&quot;:31,&quot;lastGlyphOfWord&quot;:true,&quot;word&quot;:3}"></path><path d="M433.57847,342.07571c-0.09106,1.36585 -0.31602,3.08254 -0.67489,5.15006c-0.02143,0.11784 -0.04821,0.3803 -0.08034,0.78737c-0.01607,0.21425 -0.02946,0.38565 -0.04017,0.5142c-0.01607,0.19283 -0.03482,0.36691 -0.05624,0.52224v0c-0.0857,-0.31066 -0.16604,-0.67757 -0.24103,-1.10072l-0.09641,-0.54634l-0.09641,-0.55437l-0.08838,-0.55437l-0.09641,-0.55437c-0.06963,-0.43921 -0.13659,-0.81148 -0.20086,-1.11678c-0.16604,-0.84094 -0.36423,-1.56403 -0.59455,-2.16929c-0.08034,-0.21961 -0.22229,-0.37226 -0.42582,-0.45796c-0.18211,-0.07499 -0.37494,-0.0857 -0.57848,-0.03214c-0.20354,0.05356 -0.35351,0.15801 -0.44993,0.31334c-0.10713,0.1714 -0.11784,0.36691 -0.03214,0.58651c0.27853,0.73381 0.51688,1.64973 0.71506,2.74777l0.12052,0.69899l0.11248,0.70703c0.09641,0.61597 0.17408,1.08197 0.233,1.39799l0.04017,0.20086l0.03214,0.21693c0.03214,0.18211 0.0616,0.33745 0.08838,0.466c0.08034,0.38565 0.1714,0.71506 0.27317,0.98823c0.27317,0.76059 0.6615,1.22123 1.16499,1.38192c0.26781,0.0857 0.51956,0.02143 0.75524,-0.19283c0.32138,-0.29995 0.5517,-0.81415 0.69096,-1.54261c0.03749,-0.21961 0.08034,-0.52224 0.12855,-0.90789l0.0241,-0.20889l0.0241,-0.20889c0.02143,-0.14998 0.04017,-0.27585 0.05624,-0.37762c0.46064,-2.58708 0.73917,-4.63854 0.83558,-6.15437c0.01607,-0.23568 -0.05088,-0.42047 -0.20086,-0.55437c-0.13926,-0.12319 -0.31334,-0.18479 -0.52224,-0.18479c-0.20889,0 -0.39101,0.0616 -0.54634,0.18479c-0.1714,0.13926 -0.26246,0.32405 -0.27317,0.55437z" data-paper-data="{&quot;glyphName&quot;:&quot;V&quot;,&quot;glyphIndex&quot;:32,&quot;firstGlyphOfWord&quot;:true,&quot;word&quot;:4}"></path><path d="M441.34507,350.73681c-0.19283,-1.13553 -0.30263,-2.5844 -0.32941,-4.34662l-0.00803,-1.09268l-0.00803,-1.09268c-0.00536,-0.857 -0.0241,-1.58278 -0.05624,-2.17733c-0.01607,-0.23568 -0.10713,-0.42315 -0.27317,-0.56241c-0.15533,-0.12319 -0.33745,-0.18479 -0.54634,-0.18479c-0.20889,0 -0.38297,0.0616 -0.52224,0.18479c-0.14998,0.13926 -0.21961,0.32673 -0.20889,0.56241c0.03214,0.61597 0.05624,1.37924 0.07231,2.28981l0.00803,1.14089l0.0241,1.14089c0.03214,1.83185 0.14998,3.34767 0.35351,4.54748c0.03749,0.23032 0.14462,0.39369 0.32138,0.4901c0.16069,0.08034 0.3428,0.09373 0.54634,0.04017c0.20354,-0.05892 0.36423,-0.16872 0.48207,-0.32941c0.13391,-0.17676 0.18211,-0.3803 0.14462,-0.61062z" data-paper-data="{&quot;glyphName&quot;:&quot;I&quot;,&quot;glyphIndex&quot;:33,&quot;word&quot;:4}"></path><path d="M447.21555,350.07799c-0.03214,0.02678 -0.05624,0.04821 -0.07231,0.06428c-0.01607,0.01071 -0.02143,0.01339 -0.01607,0.00803c0.00536,-0.01071 0.01607,-0.02143 0.03214,-0.03214c0.02143,-0.01607 0.04017,-0.02946 0.05624,-0.04017zM450.75873,346.38216c-0.11784,-0.93199 -0.5142,-1.92023 -1.18909,-2.9647c-0.24103,-0.36958 -0.55973,-0.8088 -0.9561,-1.31764l-0.4901,-0.63472c-0.20889,-0.26246 -0.37226,-0.47135 -0.4901,-0.62668c-0.13926,-0.18747 -0.32138,-0.2946 -0.54634,-0.32138c-0.19818,-0.02678 -0.38833,0.01339 -0.57044,0.12052c-0.18211,0.10177 -0.29727,0.23835 -0.34548,0.40976c-0.05892,0.19283 -0.01607,0.38297 0.12855,0.57044c0.12319,0.16069 0.3187,0.40976 0.58651,0.7472l0.31334,0.39369l0.31334,0.40172c0.49813,0.65347 0.87307,1.22391 1.12482,1.71133c0.71774,1.37656 0.72042,2.59244 0.00803,3.64763c-0.27853,0.41243 -0.66686,0.85165 -1.16499,1.31764c-0.04285,0.04285 -0.08034,0.07767 -0.11248,0.10445l-0.04017,-0.48207l-0.03214,-0.48207c-0.06428,-0.82487 -0.12052,-1.75686 -0.16872,-2.79598c-0.02678,-0.62668 -0.05624,-1.56136 -0.08838,-2.80401c-0.01071,-0.23568 -0.09909,-0.42315 -0.26514,-0.56241c-0.14462,-0.12319 -0.32138,-0.18479 -0.53027,-0.18479c-0.21425,0 -0.39101,0.0616 -0.53027,0.18479c-0.15533,0.13926 -0.23032,0.32673 -0.22496,0.56241l0.0241,0.93199l0.01607,0.94003c0.01607,0.79273 0.03214,1.42477 0.04821,1.89612c0.05892,1.46226 0.17944,2.71028 0.36155,3.74404c0.12855,0.71239 0.56509,0.96145 1.30961,0.7472c0.27317,-0.08034 0.56777,-0.21961 0.88379,-0.41779c0.26246,-0.16604 0.48474,-0.33209 0.66686,-0.49813c1.49976,-1.39263 2.15322,-2.83883 1.9604,-4.33859z" data-paper-data="{&quot;glyphName&quot;:&quot;D&quot;,&quot;glyphIndex&quot;:34,&quot;word&quot;:4}"></path><path d="M458.04327,345.25734c-0.33209,0.10177 -0.65079,0.22764 -0.9561,0.37762c0.28924,-0.90521 0.62936,-1.70598 1.02037,-2.40229c0,0.2571 -0.00803,0.59455 -0.0241,1.01234l-0.0241,0.50617zM459.78674,350.72878c-0.20354,-2.32463 -0.26781,-4.60908 -0.19283,-6.85336c0.02678,-0.84094 0.02143,-1.48101 -0.01607,-1.92023l-0.01607,-0.17676l-0.01607,-0.18479c-0.02143,-0.14998 -0.04553,-0.2812 -0.07231,-0.39369c-0.07499,-0.30531 -0.19283,-0.52492 -0.35351,-0.65882c-0.11784,-0.09641 -0.28924,-0.13659 -0.5142,-0.12052c-0.23032,0.01071 -0.39636,0.07499 -0.49813,0.19283l-0.08838,0.09641l-0.03214,0.03214l-0.03214,0.03214c-1.01769,1.18909 -1.82114,2.76652 -2.41033,4.73227c-0.20889,0.70703 -0.42582,1.5801 -0.65079,2.61922l-0.27317,1.31764c-0.11248,0.54634 -0.20354,0.97752 -0.27317,1.29354c-0.05356,0.23032 -0.01607,0.43386 0.11248,0.61062c0.11248,0.16069 0.26781,0.27049 0.466,0.32941c0.20354,0.05356 0.38833,0.04017 0.55437,-0.04017c0.18747,-0.09106 0.30531,-0.25175 0.35351,-0.48207c0.08034,-0.35887 0.19015,-0.88111 0.32941,-1.56671l0.16069,-0.80344l0.16872,-0.81148c0.4285,-0.46064 0.94538,-0.81683 1.55064,-1.06858c0.02678,1.35514 0.09106,2.62993 0.19283,3.82438c0.02143,0.23032 0.11784,0.41511 0.28924,0.55437c0.15533,0.12319 0.33745,0.18479 0.54634,0.18479c0.20889,0 0.3803,-0.0616 0.5142,-0.18479c0.14998,-0.13926 0.21693,-0.32405 0.20086,-0.55437z" data-paper-data="{&quot;glyphName&quot;:&quot;A&quot;,&quot;glyphIndex&quot;:35,&quot;word&quot;:4}"></path><path d="M466.34818,345.85992c-0.66953,-0.23568 -0.94538,-0.62668 -0.82755,-1.17303c0.09106,-0.40708 0.3803,-0.85165 0.86772,-1.33371c0.23032,-0.23032 0.40708,-0.35887 0.53027,-0.38565c0.10177,-0.02143 0.14998,0.03482 0.14462,0.16872c-0.00536,0.12319 -0.05624,0.27585 -0.15265,0.45796c-0.11248,0.19283 -0.24639,0.36155 -0.40172,0.50617c-0.1714,0.16069 -0.25175,0.3428 -0.24103,0.54634c0.01071,0.18747 0.08838,0.35619 0.233,0.50617c0.14998,0.14462 0.32138,0.22764 0.5142,0.24907c0.21961,0.02143 0.41511,-0.04821 0.58651,-0.20889c0.59455,-0.53563 0.9561,-1.12214 1.08465,-1.75954c0.14462,-0.71239 -0.04285,-1.34978 -0.56241,-1.91219c-0.4285,-0.47135 -1.00698,-0.50349 -1.73543,-0.09641c-0.26246,0.14462 -0.54366,0.34816 -0.84361,0.61062c-0.11248,0.09641 -0.23032,0.20354 -0.35351,0.32138c-0.0857,0.0857 -0.17944,0.18211 -0.2812,0.28924c-0.57312,0.58383 -0.89182,1.22659 -0.9561,1.92826c-0.06428,0.72845 0.15265,1.39799 0.65079,2.0086c0.23032,0.27853 0.60526,0.51688 1.12482,0.71506l0.32941,0.11248l0.32138,0.10445c0.27317,0.09106 0.47939,0.16604 0.61865,0.22496c0.25175,0.10713 0.37762,0.31602 0.37762,0.62668c-0.00536,0.26246 -0.10177,0.55973 -0.28924,0.89182c-0.18211,0.31066 -0.39101,0.55705 -0.62668,0.73917c-0.25175,0.19818 -0.46332,0.25978 -0.63472,0.18479c-0.21425,-0.09106 -0.42315,-0.09641 -0.62668,-0.01607c-0.18747,0.07499 -0.33477,0.20354 -0.44189,0.38565c-0.10713,0.18211 -0.13926,0.36155 -0.09641,0.53831c0.04285,0.19283 0.1714,0.33745 0.38565,0.43386c0.50885,0.22496 1.02841,0.24639 1.55868,0.06428c0.48207,-0.16069 0.92664,-0.466 1.33371,-0.91592c0.38565,-0.4285 0.67221,-0.91592 0.85968,-1.46226c0.19283,-0.56777 0.24103,-1.09268 0.14462,-1.57475c-0.09106,-0.47135 -0.44189,-0.86772 -1.05251,-1.18909c-0.21425,-0.10713 -0.48207,-0.21961 -0.80344,-0.33745l-0.19283,-0.06428l-0.19283,-0.06428c-0.16604,-0.05356 -0.28388,-0.09373 -0.35351,-0.12052z" data-paper-data="{&quot;glyphName&quot;:&quot;S&quot;,&quot;glyphIndex&quot;:36,&quot;lastGlyphOfWord&quot;:true,&quot;word&quot;:4}"></path></g><g data-paper-data="{&quot;isPrimaryText&quot;:true}" fill-rule="nonzero"><path d="M97.07385,327.86776l9.37378,-0.17576l16.75564,-51.14571l-8.9051,-2.87072v0.11717l-12.53744,38.31535l-12.12733,-37.20221l-8.84651,2.92931z" data-paper-data="{&quot;glyphName&quot;:&quot;V&quot;,&quot;glyphIndex&quot;:0,&quot;firstGlyphOfWord&quot;:true,&quot;word&quot;:1}" fill="#ffffff"></path><path d="M149.39128,328.92231c12.24451,0 21.67688,-12.59602 21.67688,-30.11328c0,-5.5071 -1.11314,-10.48692 -3.45658,-14.99806c-4.10103,-7.85054 -11.48289,-13.00613 -19.27484,-13.00613c-10.25258,0 -18.45464,8.26065 -20.50515,23.14153c-0.05859,0.4101 -0.05859,0.76162 -0.05859,1.11314c-0.11717,1.34748 -0.11717,2.63638 -0.11717,3.92527c0,17.81019 9.66672,29.93753 21.73546,29.93753zM149.44987,319.6657c-6.91317,0 -12.47885,-8.49499 -12.47885,-20.7395v-1.58183c0,-0.99596 0,-1.93334 0.17576,-2.87072c1.58183,-9.19803 5.74144,-14.35361 11.07278,-14.35361c6.62024,0 13.5334,7.49903 13.5334,18.6304c0,1.75758 -0.11717,3.63234 -0.46869,5.56568c-1.64041,9.90106 -6.50306,15.34957 -11.8344,15.34957z" data-paper-data="{&quot;glyphName&quot;:&quot;O&quot;,&quot;glyphIndex&quot;:1,&quot;word&quot;:1}" fill="#ffffff"></path><path d="M200.82993,327.80918l0.05859,-9.3152l-13.82633,-0.05859v-43.70527h-9.3152l0.05859,52.96188z" data-paper-data="{&quot;glyphName&quot;:&quot;L&quot;,&quot;glyphIndex&quot;:2,&quot;word&quot;:1}" fill="#ffffff"></path><path d="M225.55329,329.21525c5.80003,0 11.71723,-3.45658 15.6425,-10.83844c3.74951,-6.97175 5.5071,-17.04857 5.5071,-26.94963c0,-6.67882 -0.82021,-13.00613 -2.34345,-17.81019l-8.84651,2.87072c1.17172,3.86669 1.87476,9.08085 1.87476,14.76371c0,8.78792 -1.46465,17.3415 -4.39396,22.79001c-2.22627,4.2182 -5.38993,5.85862 -7.49903,5.85862c-4.51113,0 -9.25661,-8.55358 -9.25661,-23.20012c0,-7.14751 1.11314,-15.17381 2.92931,-20.79808l-8.84651,-2.81214c-2.22627,6.73741 -3.398,15.34957 -3.398,23.2587c0,20.50515 7.32327,32.86683 18.6304,32.86683z" data-paper-data="{&quot;glyphName&quot;:&quot;U&quot;,&quot;glyphIndex&quot;:3,&quot;word&quot;:1}" fill="#ffffff"></path><path d="M252.32716,328.04352l9.25661,-0.05859l0.35152,-38.19817l25.25063,38.02241l9.25661,-0.76162l-4.27679,-48.86085l-9.25661,0.82021l2.57779,29.35166l-23.43446,-35.09311l-9.3152,-0.11717z" data-paper-data="{&quot;glyphName&quot;:&quot;N&quot;,&quot;glyphIndex&quot;:4,&quot;lastGlyphOfWord&quot;:true,&quot;word&quot;:1}" fill="#ffffff"></path><path d="M338.80032,327.80918v-45.05275h11.13137v-9.3152h-29.52742v9.3152h9.08085v44.99417z" data-paper-data="{&quot;glyphName&quot;:&quot;T&quot;,&quot;glyphIndex&quot;:5,&quot;firstGlyphOfWord&quot;:true,&quot;word&quot;:2}" fill="#ffffff"></path><path d="M354.91152,328.9809l24.60619,-0.87879l-0.35152,-9.25661l-14.70512,0.52728l0.05859,-11.65864l7.49903,-0.23434l-0.29293,-9.3152l-7.14751,0.23434l0.11717,-15.46674l14.41219,0.70303l0.46869,-9.3152l-24.31325,-1.11314z" data-paper-data="{&quot;glyphName&quot;:&quot;E&quot;,&quot;glyphIndex&quot;:6,&quot;word&quot;:2}" fill="#ffffff"></path><path d="M404.41682,328.27787c5.9172,0 12.36168,-2.40203 19.09909,-6.97175l-5.27275,-7.73337c-5.33134,3.69093 -9.95965,5.38993 -13.82633,5.38993c-6.85458,0 -11.24854,-6.44448 -11.24854,-15.93543c0,-10.48692 5.68286,-20.27081 15.81826,-20.27081l1.46465,0.05859l0.76162,-9.25661l-2.40203,-0.11717c-15.17381,0 -24.9577,13.76775 -24.9577,29.64459c0,14.41219 8.26065,25.19205 20.56374,25.19205z" data-paper-data="{&quot;glyphName&quot;:&quot;C&quot;,&quot;glyphIndex&quot;:7,&quot;word&quot;:2}" fill="#ffffff"></path><path d="M437.16648,328.9809l0.82021,-19.74353l20.68091,-0.11717l0.87879,18.98191l9.66672,-0.4101l-2.75355,-52.49319l-9.3152,0.4101l1.11314,24.19608l-19.86071,0.11717l1.05455,-25.19205l-9.3152,-0.23434l-2.22627,54.07502z" data-paper-data="{&quot;glyphName&quot;:&quot;H&quot;,&quot;glyphIndex&quot;:8,&quot;lastGlyphOfWord&quot;:true,&quot;word&quot;:2}" fill="#ffffff"></path></g><g data-paper-data="{&quot;isIcon&quot;:&quot;true&quot;,&quot;iconType&quot;:&quot;icon&quot;,&quot;rawIconId&quot;:&quot;23909&quot;,&quot;selectedEffects&quot;:{&quot;container&quot;:&quot;&quot;,&quot;transformation&quot;:&quot;&quot;,&quot;pattern&quot;:&quot;&quot;},&quot;isDetailed&quot;:false,&quot;fillRule&quot;:&quot;evenodd&quot;,&quot;bounds&quot;:{&quot;x&quot;:174.84843962404932,&quot;y&quot;:114.99999999999999,&quot;width&quot;:200.30312075190136,&quot;height&quot;:127.86372971554268},&quot;iconStyle&quot;:&quot;standalone&quot;,&quot;suitableAsStandaloneIcon&quot;:true}" fill-rule="evenodd"><path d="M212.3849,140.98778c5.7488,28.66988 34.51884,43.82909 41.99629,56.95318c6.9907,11.35939 6.49594,30.43258 5.90504,44.92277h-29.83967c-1.72464,-26.59672 -22.67271,-31.19776 -35.69264,-43.62077c-5.12384,-4.88949 -12.62132,-11.37942 -16.95396,-24.38934c-4.44881,-13.37046 -2.97055,-45.42554 -1.35207,-59.85362c10.5948,0.0028 11.11367,8.93007 11.89052,22.29633c0.34467,5.93027 0.74013,12.73429 2.08888,20.02045c1.87086,10.10547 13.01793,17.58692 22.51045,25.29872c5.11583,4.15636 6.17946,4.35467 2.04914,-1.0436c-10.33782,-13.51669 -17.86735,-39.13391 -2.60199,-40.58412zM337.6166,140.98577c-5.7488,28.67189 -34.52084,43.82909 -41.99629,56.95519c-6.9907,11.35939 -6.49594,30.43258 -5.90904,44.92277h29.83967c1.72464,-26.59672 22.67071,-31.19776 35.69264,-43.62077c5.12384,-4.88949 12.62332,-11.37942 16.95396,-24.38934c4.45282,-13.37046 2.97255,-45.42554 1.35407,-59.85362c-10.59482,0.0028 -11.11361,8.93007 -11.8906,22.29573c-0.34453,5.92987 -0.74013,12.73349 -2.0888,20.01904c-1.86886,10.10547 -13.01793,17.58692 -22.51045,25.29872c-5.11383,4.15636 -6.17746,4.35467 -2.04714,-1.0436c10.33782,-13.51669 17.86735,-39.13391 2.60199,-40.58412z" data-paper-data="{&quot;isPathIcon&quot;:true}"></path></g></g></g><g class="watermark-group" style="opacity:0"><path class="watermark-path" d="M129.52,370.3a11.88,11.88,0,0,1,2.58,5.58,12,12,0,0,1,.11,3,11.81,11.81,0,0,1-.64,2.93,12.34,12.34,0,0,1-1.41,2.72,11.65,11.65,0,0,1-2.13,2.32,12,12,0,0,1-2.64,1.69,13,13,0,0,1-2.91.9,12.47,12.47,0,0,1-3,.12,12.17,12.17,0,0,1-2.93-.64,11.8,11.8,0,0,1-2.72-1.38,12.19,12.19,0,0,1-4-4.79,11.85,11.85,0,0,1-.89-2.92,12.14,12.14,0,0,1-.13-3,11.54,11.54,0,0,1,.64-2.92,11.67,11.67,0,0,1,3.5-5,11.44,11.44,0,0,1,2.67-1.69,11.64,11.64,0,0,1,2.92-.91,10.71,10.71,0,0,1,3-.12,11.68,11.68,0,0,1,5.66,2,11.7,11.7,0,0,1,2.34,2.12m-1.4,8.76a13,13,0,0,1-1.22,2.32,9.68,9.68,0,0,1-1.81,2,7.44,7.44,0,0,1-2.38,1.37,6.17,6.17,0,0,1-5.11-.46,8.73,8.73,0,0,1-3.85-4.58,6.69,6.69,0,0,1-.34-2.66,6.09,6.09,0,0,1,.77-2.47,7.15,7.15,0,0,1,1.75-2.11,9.58,9.58,0,0,1,1.09-.81,8.23,8.23,0,0,1,1.12-.63,8.14,8.14,0,0,1,1.19-.46,12.71,12.71,0,0,1,1.32-.37l2,2.38a12.83,12.83,0,0,0-1.56.17,7.86,7.86,0,0,0-1.23.32,4.5,4.5,0,0,0-1,.49,6.41,6.41,0,0,0-.93.67,4.49,4.49,0,0,0-1.15,1.39,3.87,3.87,0,0,0-.45,1.58,4.12,4.12,0,0,0,.26,1.63,6.11,6.11,0,0,0,2.36,2.82,4.43,4.43,0,0,0,1.57.53,3.91,3.91,0,0,0,1.62-.17,4.71,4.71,0,0,0,1.57-.89,10.5,10.5,0,0,0,.83-.79,5.71,5.71,0,0,0,.65-.93,10.13,10.13,0,0,0,.54-1.14,12.24,12.24,0,0,0,.44-1.49l2,2.33m-14.46,4.55a8.86,8.86,0,0,0,2.78,2.22,9,9,0,0,0,3.29.94,9.15,9.15,0,0,0,3.39-.37,8.68,8.68,0,0,0,3.11-1.69,8.8,8.8,0,0,0,2.22-2.78,9.15,9.15,0,0,0,1-3.29,8.95,8.95,0,0,0-4.83-8.76,9,9,0,0,0-6.73-.57,9,9,0,0,0-5.33,4.47,8.94,8.94,0,0,0-.57,6.71,8.76,8.76,0,0,0,1.7,3.12"></path><path class="watermark-path" d="M147,349c-.48.12-1.09.31-1.82.57a24.37,24.37,0,0,0-2.4,1A28.35,28.35,0,0,0,140,352a20.72,20.72,0,0,0-2.71,1.94c-.7.59-1.28,1.11-1.74,1.57a15.07,15.07,0,0,0-1.1,1.22,4.09,4.09,0,0,0-.59.92,2.32,2.32,0,0,0-.22.64,1.16,1.16,0,0,0,0,.47,1.83,1.83,0,0,0,.18.29,1.15,1.15,0,0,0,1,.37,5.54,5.54,0,0,0,1.51-.38q.87-.35,1.95-.9l2.26-1.18q1.2-.65,2.49-1.29c.87-.44,1.73-.83,2.59-1.17a18.94,18.94,0,0,1,2.6-.81,9.27,9.27,0,0,1,2.46-.29,6.25,6.25,0,0,1,2.24.49,5.12,5.12,0,0,1,1.89,1.47,6.35,6.35,0,0,1,1.41,2.61,6,6,0,0,1,.09,2.6,8.3,8.3,0,0,1-.9,2.52,17.79,17.79,0,0,1-1.62,2.37,23.92,23.92,0,0,1-2,2.15c-.72.67-1.41,1.29-2.09,1.87a33.79,33.79,0,0,1-5.33,3.7,32.29,32.29,0,0,1-4.91,2.28l-3.61-4.3a21.38,21.38,0,0,0,5.39-1.87,27.2,27.2,0,0,0,5.4-3.56,21.59,21.59,0,0,0,2.38-2.27,8.67,8.67,0,0,0,1.18-1.7,2.32,2.32,0,0,0,.27-1.19,1.34,1.34,0,0,0-.28-.74,1.21,1.21,0,0,0-1-.42,4.32,4.32,0,0,0-1.55.34,15.77,15.77,0,0,0-2,.88c-.72.37-1.48.77-2.27,1.21l-2.45,1.3c-.85.45-1.7.85-2.56,1.21a22.37,22.37,0,0,1-2.54.86,10,10,0,0,1-2.43.32,5.76,5.76,0,0,1-2.2-.45,5,5,0,0,1-1.89-1.45,6.12,6.12,0,0,1-1.31-2.41,6,6,0,0,1-.1-2.41,8.28,8.28,0,0,1,.81-2.38,14.06,14.06,0,0,1,1.49-2.24,22.37,22.37,0,0,1,1.85-2.05q1-1,2-1.77c.7-.59,1.44-1.15,2.23-1.7s1.62-1.06,2.44-1.53,1.63-.91,2.43-1.3,1.58-.75,2.3-1L147,349"></path><path class="watermark-path" d="M186.76,337.57l-10.6-12.63,3.92,18.24-4.66,3.91-17.27-7,10.6,12.63-4.86,4.07-15.09-18,6.59-5.54,18.69,7.52-4.15-19.71,6.57-5.52,15.09,18-4.83,4.05"></path><path class="watermark-path" d="M208.84,313.24l-10,8.42,1.16,4.82L194.56,331l-5.68-25.89,5.42-4.55,24.51,10.09-5.42,4.55-4.55-2m-11.23,3.45,6.57-5.52-8.83-3.87,2.26,9.39"></path><path class="watermark-path" d="M227.49,281.38c-.48.12-1.09.31-1.82.57a24.37,24.37,0,0,0-2.4,1,26.11,26.11,0,0,0-2.7,1.47,20.72,20.72,0,0,0-2.71,1.94c-.7.59-1.28,1.11-1.74,1.57a13.39,13.39,0,0,0-1.1,1.22,4.29,4.29,0,0,0-.59.91,2.48,2.48,0,0,0-.22.65,1.16,1.16,0,0,0,0,.47,1.83,1.83,0,0,0,.18.29,1.15,1.15,0,0,0,1,.37,5.54,5.54,0,0,0,1.51-.38q.87-.34,2-.9l2.26-1.18q1.2-.64,2.49-1.29c.87-.44,1.73-.83,2.59-1.17a18.94,18.94,0,0,1,2.6-.81,9.27,9.27,0,0,1,2.46-.29,6.08,6.08,0,0,1,2.24.49,5.09,5.09,0,0,1,1.89,1.46,6.47,6.47,0,0,1,1.41,2.61,6.07,6.07,0,0,1,.09,2.61,8.3,8.3,0,0,1-.9,2.52,16.32,16.32,0,0,1-1.63,2.36,21.41,21.41,0,0,1-2,2.16c-.72.67-1.41,1.29-2.1,1.86a33.36,33.36,0,0,1-5.32,3.71,31.92,31.92,0,0,1-4.92,2.28l-3.6-4.3a21.38,21.38,0,0,0,5.39-1.87,27.2,27.2,0,0,0,5.4-3.56,21.59,21.59,0,0,0,2.38-2.27,8.67,8.67,0,0,0,1.18-1.7A2.32,2.32,0,0,0,231,293a1.34,1.34,0,0,0-.28-.74,1.21,1.21,0,0,0-1-.42,4.32,4.32,0,0,0-1.55.34,16.54,16.54,0,0,0-2,.88c-.71.37-1.47.77-2.26,1.21l-2.46,1.3c-.84.44-1.7.85-2.55,1.21a24.53,24.53,0,0,1-2.54.86A10,10,0,0,1,214,298a5.76,5.76,0,0,1-2.2-.45,5,5,0,0,1-1.89-1.45,6.12,6.12,0,0,1-1.31-2.41,5.78,5.78,0,0,1-.1-2.41,8,8,0,0,1,.81-2.38,14.61,14.61,0,0,1,1.49-2.25,22.26,22.26,0,0,1,1.85-2q1-1,2-1.77c.7-.59,1.44-1.15,2.23-1.7s1.62-1.06,2.44-1.53,1.63-.91,2.43-1.31,1.58-.74,2.3-1l3.5,4.16"></path><path class="watermark-path" d="M261.64,274.74l-6.29-7.5L243,277.61l6.3,7.5-4.86,4.07-15.09-18,4.85-4.08,5.49,6.55L252,263.3l-5.49-6.55,4.86-4.07,15.09,18-4.86,4.08"></path><path class="watermark-path" d="M272.18,265.9l-15.09-18,4.86-4.08,15.09,18-4.86,4.08"></path><path class="watermark-path" d="M299.65,242.85l-22.51-2.18L287.51,253l-4.85,4.08-15.1-18,5.28-4.43,22.56,2.22L285,224.5l4.83-4.06,15.09,18-5.26,4.42"></path><path class="watermark-path" d="M306.68,205.52a31.88,31.88,0,0,1,5.29-3.66,34.48,34.48,0,0,1,5.14-2.35l3.69,4.39a20.77,20.77,0,0,0-2.37.61,20.47,20.47,0,0,0-2.61,1,25.12,25.12,0,0,0-2.76,1.49,23.9,23.9,0,0,0-2.8,2,20.42,20.42,0,0,0-2.8,2.77,12.77,12.77,0,0,0-1.64,2.52,7,7,0,0,0-.68,2.24,6,6,0,0,0,.66,3.64,8.16,8.16,0,0,0,.94,1.38,9.12,9.12,0,0,0,1.08,1.07,6.39,6.39,0,0,0,1.47.91,6.73,6.73,0,0,0,1.88.48,6.54,6.54,0,0,0,2.28-.18,11.67,11.67,0,0,0,2.74-1.07,19.38,19.38,0,0,0,3.18-2.22c.57-.48,1.06-.92,1.46-1.31a14.57,14.57,0,0,0,1-1.13,11.46,11.46,0,0,0,.81-1.05l.74-1.09-1.82-2.17-5.45,4.57-3.31-3.94,10.31-8.65,7.71,9.19a29,29,0,0,1-1.67,2.43q-1,1.26-2.1,2.52c-.74.84-1.5,1.65-2.3,2.44s-1.58,1.5-2.33,2.14a31,31,0,0,1-3.59,2.61,22.55,22.55,0,0,1-3.64,1.83,15.64,15.64,0,0,1-3.63.89,10.72,10.72,0,0,1-3.49-.15,10.45,10.45,0,0,1-3.28-1.33,12.54,12.54,0,0,1-3-2.67,12,12,0,0,1-2.08-3.44,10.45,10.45,0,0,1-.71-3.5,11.14,11.14,0,0,1,.51-3.51,15.72,15.72,0,0,1,1.56-3.43,21.62,21.62,0,0,1,2.42-3.28,30.3,30.3,0,0,1,3.15-3"></path><path class="watermark-path" d="M336.91,211.59l-15.1-18,4.86-4.08,11.79,14,13.13-11,3.31,3.94-18,15.1"></path><path class="watermark-path" d="M374.54,164.71a12.28,12.28,0,0,1,2.59,4.81,10.44,10.44,0,0,1,0,5,14.62,14.62,0,0,1-2.33,5,25.55,25.55,0,0,1-4.56,4.85,26.07,26.07,0,0,1-5.6,3.67,14.79,14.79,0,0,1-5.38,1.43,10.43,10.43,0,0,1-4.94-.89,13.24,13.24,0,0,1-6.87-8.18,10.48,10.48,0,0,1,0-5,14.51,14.51,0,0,1,2.36-5,25.23,25.23,0,0,1,4.57-4.89,25,25,0,0,1,5.59-3.64,14.45,14.45,0,0,1,5.35-1.43,10.31,10.31,0,0,1,4.93.92,12.22,12.22,0,0,1,4.28,3.38m-4.91,4.11a8.36,8.36,0,0,0-2-1.72,5.5,5.5,0,0,0-2.65-.85,7.72,7.72,0,0,0-3.32.57,14.49,14.49,0,0,0-4,2.52,16.72,16.72,0,0,0-2.38,2.4,10.15,10.15,0,0,0-1.39,2.24,6.71,6.71,0,0,0-.56,2.1,5.69,5.69,0,0,0,.1,1.9,6.21,6.21,0,0,0,.61,1.69,9.85,9.85,0,0,0,1,1.44,10.48,10.48,0,0,0,1.26,1.23,6.67,6.67,0,0,0,1.57.92,6.1,6.1,0,0,0,1.85.41,6.8,6.8,0,0,0,2.15-.2,11.06,11.06,0,0,0,2.45-1,17.67,17.67,0,0,0,2.77-1.94,14.39,14.39,0,0,0,3.18-3.52,7.74,7.74,0,0,0,1.14-3.17,5.54,5.54,0,0,0-.37-2.74,8.52,8.52,0,0,0-1.36-2.3"></path><path class="watermark-path" d="M382.66,141.76A32.3,32.3,0,0,1,388,138.1a34.12,34.12,0,0,1,5.15-2.35l3.69,4.4a19.62,19.62,0,0,0-2.37.6,22.08,22.08,0,0,0-2.61,1,26,26,0,0,0-2.77,1.49,23.9,23.9,0,0,0-2.8,2,21,21,0,0,0-2.8,2.78,13.19,13.19,0,0,0-1.64,2.51,7.29,7.29,0,0,0-.68,2.24,6.36,6.36,0,0,0,.06,2,5.8,5.8,0,0,0,.61,1.68,8.12,8.12,0,0,0,.93,1.38,9.16,9.16,0,0,0,1.08,1.08,6.56,6.56,0,0,0,1.48.9,6,6,0,0,0,1.87.48,6.76,6.76,0,0,0,2.28-.17,12,12,0,0,0,2.74-1.08,18.57,18.57,0,0,0,3.18-2.22c.58-.48,1.06-.92,1.46-1.31s.75-.77,1.05-1.12.57-.72.81-1.06l.73-1.09-1.82-2.17-5.45,4.57-3.3-3.94,10.3-8.65,7.71,9.19a29,29,0,0,1-1.67,2.43q-1,1.26-2.1,2.52c-.73.84-1.5,1.66-2.3,2.44s-1.57,1.5-2.33,2.14a31,31,0,0,1-3.59,2.61,22.15,22.15,0,0,1-3.64,1.83,15.56,15.56,0,0,1-3.62.89,11,11,0,0,1-3.49-.14,10.84,10.84,0,0,1-3.28-1.33,12.82,12.82,0,0,1-3-2.68,12.12,12.12,0,0,1-2.08-3.43A10.71,10.71,0,0,1,375,155a11.18,11.18,0,0,1,.51-3.51,15.51,15.51,0,0,1,1.57-3.43,21.44,21.44,0,0,1,2.42-3.28,30.19,30.19,0,0,1,3.14-3"></path><path class="watermark-path" d="M428.63,119.31a12.26,12.26,0,0,1,2.59,4.82,10.44,10.44,0,0,1,0,5,14.53,14.53,0,0,1-2.34,5,25.29,25.29,0,0,1-4.56,4.86,26,26,0,0,1-5.59,3.67,14.84,14.84,0,0,1-5.38,1.43,10.61,10.61,0,0,1-4.95-.89,12.15,12.15,0,0,1-4.3-3.37,12,12,0,0,1-2.56-4.81,10.48,10.48,0,0,1,0-5,14.39,14.39,0,0,1,2.35-5,27.89,27.89,0,0,1,10.16-8.53,14.49,14.49,0,0,1,5.36-1.43,10.27,10.27,0,0,1,4.92.92,12.21,12.21,0,0,1,4.28,3.37m-4.91,4.12a8.17,8.17,0,0,0-2-1.72,5.58,5.58,0,0,0-2.65-.86,7.86,7.86,0,0,0-3.31.58,14.49,14.49,0,0,0-4,2.52,16.21,16.21,0,0,0-2.38,2.4,9.85,9.85,0,0,0-1.4,2.24,7,7,0,0,0-.56,2.1,6,6,0,0,0,.1,1.9,6.23,6.23,0,0,0,.62,1.69,8.49,8.49,0,0,0,1,1.44,9.18,9.18,0,0,0,1.26,1.23,6.67,6.67,0,0,0,1.57.92,6,6,0,0,0,1.84.41,6.86,6.86,0,0,0,2.16-.2,11.26,11.26,0,0,0,2.45-1,17.62,17.62,0,0,0,2.76-1.94,14.67,14.67,0,0,0,3.19-3.52,7.71,7.71,0,0,0,1.13-3.17,5.53,5.53,0,0,0-.36-2.74,8.55,8.55,0,0,0-1.37-2.3"></path></g></svg>